<svg xmlns="http://www.w3.org/2000/svg" width="45" height="45" viewBox="0 0 45 45">
  <g id="Group_12640" data-name="Group 12640" transform="translate(-242 -1034)">
    <g id="Group_12641" data-name="Group 12641">
      <g id="Group_12632" data-name="Group 12632" transform="translate(90 -4976)">
        <g id="Group_10467" data-name="Group 10467" transform="translate(152 6010)">
          <g id="Group_9067" data-name="Group 9067" transform="translate(0 0)">
            <g id="Group_8666" data-name="Group 8666">
              <circle id="Ellipse_959" data-name="Ellipse 959" cx="22.5" cy="22.5" r="22.5" fill="#fff"/>
            </g>
          </g>
        </g>
      </g>
      <g id="_2" data-name="2" transform="translate(235.192 1019.909)">
        <path id="Path_29700" data-name="Path 29700" d="M28.1,71.3a7.355,7.355,0,1,0-1.147-3.945q0,.172.008.342l1.928-.786a5.436,5.436,0,1,1,1.022,3.641l1.228-.507a4.156,4.156,0,1,0-.866-3.7l2.44-.994a2.558,2.558,0,1,1,.033,4.029l2.048-.845a1.279,1.279,0,1,0-.976-2.364l-9.61,3.966-2.221-.66a1.279,1.279,0,0,0-.713,2.456l1.382.4-.4,1.382a1.279,1.279,0,1,0,2.456.713l.571-1.968Z" transform="translate(-4.997 -25.17)" fill="#de6336"/>
        <path id="Path_29701" data-name="Path 29701" d="M28.1,71.3a7.355,7.355,0,1,0-1.147-3.945q0,.172.008.342l1.928-.786a5.436,5.436,0,1,1,1.022,3.641l1.228-.507a4.156,4.156,0,1,0-.866-3.7l2.44-.994a2.558,2.558,0,1,1,.033,4.029l2.048-.845a1.279,1.279,0,1,0-.976-2.364l-9.61,3.966-2.221-.66a1.279,1.279,0,0,0-.713,2.456l1.382.4-.4,1.382a1.279,1.279,0,1,0,2.456.713l.571-1.968Z" transform="translate(-4.997 -25.17)" fill="#de6336"/>
        <path id="Path_29702" data-name="Path 29702" d="M29.309,38.755a4.457,4.457,0,0,0,2.075-.509l.219,1.205a.959.959,0,0,0,.927.787l.667.012a2.354,2.354,0,0,1,1.718.79.733.733,0,0,0,.922.144l.029-.017a3.74,3.74,0,0,1,4.364.476.783.783,0,0,0,1.243-.851l-1.188-3.56a1.279,1.279,0,0,0-1.213-.874H37.888a1.019,1.019,0,0,1-1.019-1.019v-.7A1.643,1.643,0,0,1,38.513,33h.812a2.126,2.126,0,0,1,1.58.7l.417.462a3.525,3.525,0,0,1,.646,1.031l3.5,8.581a1.919,1.919,0,0,1-1.417,2.608l-1.344.256a1.918,1.918,0,0,1-.914-.048L37.939,45.43a.956.956,0,0,0-.728.072,8.636,8.636,0,0,0-15.8,0,.956.956,0,0,0-.733-.074l-3.851,1.163a1.918,1.918,0,0,1-.914.048l-1.344-.256a1.919,1.919,0,0,1-1.417-2.609l3.5-8.581a3.527,3.527,0,0,1,.647-1.031l.417-.463A2.127,2.127,0,0,1,19.29,33H20.1a1.643,1.643,0,0,1,1.558,1.121l0,.01a1.643,1.643,0,0,1,.082.512v.695a1.019,1.019,0,0,1-1.019,1.019H19.544a1.279,1.279,0,0,0-1.213.874l-1.188,3.56a.784.784,0,0,0,1.244.851,3.74,3.74,0,0,1,4.364-.476l.028.017a.733.733,0,0,0,.922-.143,2.355,2.355,0,0,1,1.718-.79l.667-.012a.959.959,0,0,0,.927-.787l.22-1.206A4.457,4.457,0,0,0,29.309,38.755Z" transform="translate(0 -6.803)" fill="#de6336"/>
        <path id="Path_29703" data-name="Path 29703" d="M29.309,38.755a4.457,4.457,0,0,0,2.075-.509l.219,1.205a.959.959,0,0,0,.927.787l.667.012a2.354,2.354,0,0,1,1.718.79.733.733,0,0,0,.922.144l.029-.017a3.74,3.74,0,0,1,4.364.476.783.783,0,0,0,1.243-.851l-1.188-3.56a1.279,1.279,0,0,0-1.213-.874H37.888a1.019,1.019,0,0,1-1.019-1.019v-.7A1.643,1.643,0,0,1,38.513,33h.812a2.126,2.126,0,0,1,1.58.7l.417.462a3.525,3.525,0,0,1,.646,1.031l3.5,8.581a1.919,1.919,0,0,1-1.417,2.608l-1.344.256a1.918,1.918,0,0,1-.914-.048L37.939,45.43a.956.956,0,0,0-.728.072,8.636,8.636,0,0,0-15.8,0,.956.956,0,0,0-.733-.074l-3.851,1.163a1.918,1.918,0,0,1-.914.048l-1.344-.256a1.919,1.919,0,0,1-1.417-2.609l3.5-8.581a3.527,3.527,0,0,1,.647-1.031l.417-.463A2.127,2.127,0,0,1,19.29,33H20.1a1.643,1.643,0,0,1,1.558,1.121l0,.01a1.643,1.643,0,0,1,.082.512v.695a1.019,1.019,0,0,1-1.019,1.019H19.544a1.279,1.279,0,0,0-1.213.874l-1.188,3.56a.784.784,0,0,0,1.244.851,3.74,3.74,0,0,1,4.364-.476l.028.017a.733.733,0,0,0,.922-.143,2.355,2.355,0,0,1,1.718-.79l.667-.012a.959.959,0,0,0,.927-.787l.22-1.206A4.457,4.457,0,0,0,29.309,38.755Z" transform="translate(0 -6.803)" fill="#de6336"/>
        <path id="Path_29704" data-name="Path 29704" d="M56.578,23a2.583,2.583,0,0,0-2.583,2.583v1.893a3.2,3.2,0,1,0,6.394,0V25.583A2.583,2.583,0,0,0,57.806,23Z" transform="translate(-27.883)" fill="#de6336"/>
        <path id="Path_29705" data-name="Path 29705" d="M56.578,23a2.583,2.583,0,0,0-2.583,2.583v1.893a3.2,3.2,0,1,0,6.394,0V25.583A2.583,2.583,0,0,0,57.806,23Z" transform="translate(-27.883)" fill="#de6336"/>
      </g>
    </g>
  </g>
</svg>
