<svg xmlns="http://www.w3.org/2000/svg" width="45" height="45" viewBox="0 0 45 45">
  <g id="Group_12643" data-name="Group 12643" transform="translate(-242 -1034)">
    <g id="Group_12641" data-name="Group 12641">
      <g id="Group_12632" data-name="Group 12632" transform="translate(90 -4976)">
        <g id="Group_10467" data-name="Group 10467" transform="translate(152 6010)">
          <g id="Group_9067" data-name="Group 9067" transform="translate(0 0)">
            <g id="Group_8666" data-name="Group 8666">
              <circle id="Ellipse_959" data-name="Ellipse 959" cx="22.5" cy="22.5" r="22.5" fill="#fff"/>
            </g>
          </g>
        </g>
      </g>
      <g id="_4" data-name="4" transform="translate(227.378 1028.715)">
        <path id="Path_29707" data-name="Path 29707" d="M47.287,36.2v3.228a1.149,1.149,0,0,1-1.148,1.146H28.486a1.149,1.149,0,0,1-1.148-1.146V18.33a1.149,1.149,0,0,1,1.148-1.146h3.56v1.169H28.933a.426.426,0,0,0-.426.426v20.2a.426.426,0,0,0,.426.426H45.692a.426.426,0,0,0,.426-.426v-2.7l.063.011.185.032a.852.852,0,0,0,.294,0l.185-.032q.223-.039.442-.093Zm-2.021-.134v2.487H29.359V19.205h2.687v.266a.852.852,0,0,0,.852.852h8.829a.852.852,0,0,0,.852-.852v-.266h2.687v3.744l-1.952.837H37.078a.426.426,0,0,0,0,.852h4.247l-.23.1a.852.852,0,0,0-.517.783v2.03h-3.5a.426.426,0,0,0,0,.852h3.5v1.224h-3.5a.426.426,0,1,0,0,.852h3.555a6.745,6.745,0,0,0,1.1,2.909H37.078a.426.426,0,1,0,0,.852h5.329A6.766,6.766,0,0,0,45.266,36.063ZM31.516,21.353a.377.377,0,0,0-.377.377v2.887a.378.378,0,0,0,.377.377H34.4a.378.378,0,0,0,.377-.377V21.73a.377.377,0,0,0-.377-.377Zm5.562,14.964h6.408a.426.426,0,0,0,0-.852H37.078a.426.426,0,1,0,0,.852Zm-5.562-3.283a.377.377,0,0,0-.377.377V36.3a.377.377,0,0,0,.377.377H34.4a.377.377,0,0,0,.377-.377V33.411a.377.377,0,0,0-.377-.377Zm0-5.84a.377.377,0,0,0-.377.377v2.885a.377.377,0,0,0,.377.377H34.4a.377.377,0,0,0,.377-.377V27.57a.377.377,0,0,0-.377-.377Zm5.562-4.632h6.408a.426.426,0,0,0,0-.852H37.078a.426.426,0,1,0,0,.852Zm9.04.022v-3.8a.426.426,0,0,0-.426-.426H42.579V17.184h3.56a1.149,1.149,0,0,1,1.148,1.146v4.417l-.439-.188a.853.853,0,0,0-.672,0ZM32.9,16.758a.266.266,0,0,1,.266-.266h2.253a1.949,1.949,0,0,1,3.79,0H41.46a.266.266,0,0,1,.266.266V19.2a.266.266,0,0,1-.266.266h-8.3A.266.266,0,0,1,32.9,19.2Zm4.414.356A.516.516,0,1,0,36.8,16.6.516.516,0,0,0,37.312,17.114Zm9.2,6.228,5.081,2.178v4.109a5.932,5.932,0,0,1-4.9,5.821l-.185.032-.185-.032a5.932,5.932,0,0,1-4.9-5.821V25.52Zm.168,1.078a.426.426,0,0,0-.336,0l-3.731,1.6a.426.426,0,0,0-.258.392v3.219a5.009,5.009,0,0,0,4.079,4.9.425.425,0,0,0,.155,0,5.009,5.009,0,0,0,4.081-4.9V26.41a.426.426,0,0,0-.258-.392Zm-.168.855,3.306,1.415v2.938a4.153,4.153,0,0,1-3.306,4.048,4.153,4.153,0,0,1-3.3-4.048V26.691ZM45.8,27.42V28.6a.148.148,0,0,1-.148.148H44.472a.148.148,0,0,0-.148.148v1.121a.148.148,0,0,0,.148.148h1.184a.148.148,0,0,1,.148.148V31.5a.148.148,0,0,0,.148.148h1.121a.148.148,0,0,0,.148-.148V30.318a.148.148,0,0,1,.148-.148h1.184a.148.148,0,0,0,.148-.148V28.9a.148.148,0,0,0-.148-.148H47.369a.148.148,0,0,1-.148-.148V27.42a.148.148,0,0,0-.148-.148H45.952a.148.148,0,0,0-.148.148Z" fill="#de6336" fill-rule="evenodd"/>
      </g>
    </g>
  </g>
</svg>
