<svg xmlns="http://www.w3.org/2000/svg" width="45" height="45" viewBox="0 0 45 45">
  <g id="Group_12639" data-name="Group 12639" transform="translate(-242 -1034)">
    <g id="Group_12632" data-name="Group 12632" transform="translate(90 -4976)">
      <g id="Group_10467" data-name="Group 10467" transform="translate(152 6010)">
        <g id="Group_9067" data-name="Group 9067" transform="translate(0 0)">
          <g id="Group_8666" data-name="Group 8666">
            <circle id="Ellipse_959" data-name="Ellipse 959" cx="22.5" cy="22.5" r="22.5" fill="#fff"/>
          </g>
        </g>
      </g>
    </g>
    <g id="_11" data-name="11" transform="translate(245 1034.581)">
      <path id="Path_29698" data-name="Path 29698" d="M32.915,11.475c-3.827-4.27-10.472-3.822-13.385.094a8.216,8.216,0,0,0-5.891-3.114C8.7,7.983,3.612,12.275,4.023,17.361A9.9,9.9,0,0,0,4.251,19h7.11a.552.552,0,0,1,.538.416l.737,2.887,1.74-7.033a.554.554,0,0,1,1.086.044l1.075,6.734,1.5-2.766a.557.557,0,0,1,.488-.288h2.272a.556.556,0,0,1,.482.277l1.18,2.067,1.491-6.069a.553.553,0,0,1,1.075.006l1.386,5.836.782-1.779A.551.551,0,0,1,27.7,19h7.11a8.139,8.139,0,0,0-1.9-7.521Zm-1.691,2.261a.551.551,0,0,1-.781-.039,5.892,5.892,0,0,0-4.778-1.923.556.556,0,1,1-.083-1.109,7.02,7.02,0,0,1,5.681,2.29.553.553,0,0,1-.039.782Z" transform="translate(0)" fill="#de6336"/>
      <path id="Path_29699" data-name="Path 29699" d="M28.515,27.614l-1.3,2.96a.556.556,0,0,1-1.047-.094l-1.236-5.2L23.66,30.451a.56.56,0,0,1-1.02.144l-1.712-2.987H19.309l-2.117,3.913a.559.559,0,0,1-.582.283.566.566,0,0,1-.455-.46l-.9-5.658-1.618,6.528a.554.554,0,0,1-1.076.006l-1.175-4.605H5.022a8.585,8.585,0,0,0,1,1.968A45.466,45.466,0,0,0,18.423,41.6a2.8,2.8,0,0,0,3.126,0A45.4,45.4,0,0,0,33.918,29.62a8.25,8.25,0,0,0,1.026-2.007c-.683.008-5.618-.006-6.43,0Zm-8.08,12a.55.55,0,0,1-.771.144,49.92,49.92,0,0,1-5.436-4.234.554.554,0,1,1,.737-.826,49.563,49.563,0,0,0,5.32,4.146.554.554,0,0,1,.15.771Z" transform="translate(-0.455 -7.51)" fill="#de6336"/>
    </g>
  </g>
</svg>
