<svg xmlns="http://www.w3.org/2000/svg" xmlns:xlink="http://www.w3.org/1999/xlink" width="261.539" height="259.617" viewBox="0 0 261.539 259.617">
  <defs>
    <clipPath id="clip-path">
      <rect id="Rectangle_10530" data-name="Rectangle 10530" width="261.539" height="259.617" fill="none"/>
    </clipPath>
    <clipPath id="clip-path-2">
      <path id="Path_29756" data-name="Path 29756" d="M145.605.658c-.821.087-1.759.181-3.015.345C91.215,7.718,59.062,55.379,55.244,61.213c-32.2,49.2-34.251,128.625,7.891,166.7,18.546,16.756,40.132,20.113,65.7,24.872,15.85,2.95,67.114,11.58,111.96-18.364a98.6,98.6,0,0,0,17.316-14.056C298,179.245,297.906,104.216,266.538,55.772A119.8,119.8,0,0,0,242.96,29.02C212.945,3.873,177.854,0,158.723,0a123.973,123.973,0,0,0-13.118.655" transform="translate(-31.267 -0.003)" fill="none"/>
    </clipPath>
    <linearGradient id="linear-gradient" x1="0.629" y1="0.241" x2="0.831" y2="0.419" gradientUnits="objectBoundingBox">
      <stop offset="0" stop-color="#ff9d51"/>
      <stop offset="1" stop-color="#e06237"/>
    </linearGradient>
    <clipPath id="clip-path-3">
      <rect id="Rectangle_10452" data-name="Rectangle 10452" width="261.538" height="259.617" fill="none"/>
    </clipPath>
    <clipPath id="clip-path-4">
      <path id="Path_29760" data-name="Path 29760" d="M1382.527,421.2a.872.872,0,0,0-.889.855l-.032,9.4c0,.473.393,1.108.883,1.108h.224c.49,0,.889-.637.891-1.11l.036-9.4a.868.868,0,0,0-.888-.854Z" transform="translate(-1381.606 -421.204)" fill="none"/>
    </clipPath>
    <linearGradient id="linear-gradient-2" x1="-63.939" y1="19.351" x2="-63.892" y2="19.351" gradientUnits="objectBoundingBox">
      <stop offset="0" stop-color="#09005d"/>
      <stop offset="1" stop-color="#1a0f91"/>
    </linearGradient>
    <clipPath id="clip-path-5">
      <path id="Path_29761" data-name="Path 29761" d="M1204.5,445.064a.843.843,0,0,0-.26,1.19l5.327,7.906a.905.905,0,0,0,1.227.249.841.841,0,0,0,.261-1.186l-5.325-7.908a.9.9,0,0,0-.745-.39.908.908,0,0,0-.485.14" transform="translate(-1204.1 -444.924)" fill="none"/>
    </clipPath>
    <linearGradient id="linear-gradient-3" x1="-9.701" y1="17.976" x2="-9.693" y2="17.976" xlink:href="#linear-gradient-2"/>
    <clipPath id="clip-path-6">
      <path id="Path_29762" data-name="Path 29762" d="M1078.653,529.454a.838.838,0,0,0,.158,1.2l7.71,5.777a.909.909,0,0,0,1.244-.151.835.835,0,0,0-.155-1.2l-7.711-5.78a.911.911,0,0,0-1.247.151" transform="translate(-1078.467 -529.123)" fill="none"/>
    </clipPath>
    <linearGradient id="linear-gradient-4" x1="-8.395" y1="17.195" x2="-8.387" y2="17.195" xlink:href="#linear-gradient-2"/>
    <clipPath id="clip-path-7">
      <path id="Path_29763" data-name="Path 29763" d="M1507.428,445.038l-5.377,7.911a.836.836,0,0,0,.252,1.185.908.908,0,0,0,1.227-.251l5.378-7.908a.84.84,0,0,0-.25-1.189.909.909,0,0,0-1.23.252" transform="translate(-1501.905 -444.647)" fill="none"/>
    </clipPath>
    <linearGradient id="linear-gradient-5" x1="-11.398" y1="18.979" x2="-11.391" y2="18.979" xlink:href="#linear-gradient-2"/>
    <clipPath id="clip-path-8">
      <path id="Path_29764" data-name="Path 29764" d="M1609.67,528.673l-7.731,5.789a.837.837,0,0,0-.164,1.2.9.9,0,0,0,1.24.148l7.729-5.786a.84.84,0,0,0,.167-1.2.885.885,0,0,0-.695-.329.909.909,0,0,0-.546.181" transform="translate(-1601.592 -528.492)" fill="none"/>
    </clipPath>
    <linearGradient id="linear-gradient-6" x1="-12.112" y1="17.695" x2="-12.105" y2="17.695" xlink:href="#linear-gradient-2"/>
    <clipPath id="clip-path-9">
      <path id="Path_29765" data-name="Path 29765" d="M1377.162,571.856c-.758,0-1.375.345-1.378,1.077l-.034,9.534,2.988,0,.04-9.533c0-.732-.609-1.074-1.368-1.074Z" transform="translate(-1375.75 -571.856)" fill="none"/>
    </clipPath>
    <linearGradient id="linear-gradient-7" x1="-13.763" y1="20.469" x2="-13.753" y2="20.469" gradientUnits="objectBoundingBox">
      <stop offset="0" stop-color="#e1473d"/>
      <stop offset="1" stop-color="#e9605a"/>
    </linearGradient>
    <clipPath id="clip-path-10">
      <path id="Path_29766" data-name="Path 29766" d="M131.986,269.116l-13.221,0c-8.875,0-15.958,6.765-15.785,15.05l1.4,66.783a.5.5,0,0,0,.507.472.475.475,0,0,0,.488-.475l-1.383-66.781c-.16-7.747,6.477-14.069,14.793-14.071l13.218,0a.488.488,0,0,0,.5-.489.506.506,0,0,0-.512-.489h0" transform="translate(-102.977 -269.116)" fill="#084b7f"/>
    </clipPath>
    <clipPath id="clip-path-11">
      <path id="Path_29767" data-name="Path 29767" d="M2621.962,1885.5a.489.489,0,0,0-.5.458l-1.456,50.965a.443.443,0,0,0,.464.443.483.483,0,0,0,.49-.45l1.466-50.964a.45.45,0,0,0-.467-.453h0" transform="translate(-2620.01 -1885.499)" fill="#084b7f"/>
    </clipPath>
    <clipPath id="clip-path-12">
      <path id="Path_29772" data-name="Path 29772" d="M2061.784,2551.621l.476,3.909a.078.078,0,0,0,.077.068.079.079,0,0,0,.079-.067l.684-4.385a2.286,2.286,0,0,0-.784-.187c-.316,0-.6.14-.532.661" transform="translate(-2061.775 -2550.96)" fill="none"/>
    </clipPath>
    <linearGradient id="linear-gradient-8" x1="-43.143" y1="4.694" x2="-43.122" y2="4.694" xlink:href="#linear-gradient-7"/>
    <clipPath id="clip-path-13">
      <path id="Path_29773" data-name="Path 29773" d="M767.225,1367.165a27.535,27.535,0,1,0,27.535-27.536,27.535,27.535,0,0,0-27.535,27.536" transform="translate(-767.225 -1339.63)" fill="none"/>
    </clipPath>
    <linearGradient id="linear-gradient-9" x1="-0.784" y1="1.86" x2="-0.783" y2="1.86" gradientUnits="objectBoundingBox">
      <stop offset="0" stop-color="#ff928e"/>
      <stop offset="1" stop-color="#fe7062"/>
    </linearGradient>
    <clipPath id="clip-path-14">
      <path id="Path_29774" data-name="Path 29774" d="M776.936,1375.96a26.62,26.62,0,1,0,26.62-26.62,26.62,26.62,0,0,0-26.62,26.62" transform="translate(-776.936 -1349.34)" fill="none"/>
    </clipPath>
    <linearGradient id="linear-gradient-10" x1="0.201" y1="0.293" x2="0.798" y2="0.707" gradientUnits="objectBoundingBox">
      <stop offset="0" stop-color="#fe9c50"/>
      <stop offset="1" stop-color="#e26639"/>
    </linearGradient>
    <clipPath id="clip-path-16">
      <rect id="Rectangle_10468" data-name="Rectangle 10468" width="0.92" height="3.649" fill="none"/>
    </clipPath>
    <clipPath id="clip-path-17">
      <rect id="Rectangle_10469" data-name="Rectangle 10469" width="26.946" height="14.078" fill="none"/>
    </clipPath>
    <clipPath id="clip-path-18">
      <rect id="Rectangle_10470" data-name="Rectangle 10470" width="45.061" height="45.061" fill="none"/>
    </clipPath>
    <clipPath id="clip-path-19">
      <path id="Path_29778" data-name="Path 29778" d="M927.608,1524.5a8.06,8.06,0,0,0-6.559-3.565c-4.627,0-8.377,4.22-8.377,9.425,0,4.644,8.03,13.155,13.245,16.5a2.879,2.879,0,0,0,3.305-.141c4.486-3.438,13.322-11.78,13.322-16.36,0-5.205-3.751-9.425-8.377-9.425a8.06,8.06,0,0,0-6.559,3.565" transform="translate(-912.672 -1520.933)" fill="none"/>
    </clipPath>
    <clipPath id="clip-path-20">
      <path id="Path_29779" data-name="Path 29779" d="M883.412,1583.883,879,1588.721H869.8a.892.892,0,1,0,0,1.783h9.587a.892.892,0,0,0,.659-.29l3.771-4.13,3.9,8.58a.892.892,0,0,0,.777.522h.035a.892.892,0,0,0,.78-.461l3.793-6.863,1.07,2.542a.891.891,0,0,0,.822.546h8.918a.892.892,0,0,0,0-1.784h-8.326l-1.554-3.69a.892.892,0,0,0-1.6-.085l-3.824,6.919-3.725-8.195a.892.892,0,0,0-1.47-.232" transform="translate(-868.91 -1583.593)" fill="#ae2a30"/>
    </clipPath>
    <clipPath id="clip-path-21">
      <path id="Path_29780" data-name="Path 29780" d="M804.538,647.418a27.535,27.535,0,1,0,27.535-27.536,27.535,27.535,0,0,0-27.535,27.536" transform="translate(-804.538 -619.883)" fill="none"/>
    </clipPath>
    <linearGradient id="linear-gradient-11" x1="-0.845" y1="2.758" x2="-0.844" y2="2.758" xlink:href="#linear-gradient-9"/>
    <clipPath id="clip-path-22">
      <path id="Path_29781" data-name="Path 29781" d="M814.249,656.214a26.62,26.62,0,1,0,26.62-26.62,26.62,26.62,0,0,0-26.62,26.62" transform="translate(-814.249 -629.594)" fill="none"/>
    </clipPath>
    <linearGradient id="linear-gradient-12" x1="0.845" y1="0.62" x2="0.207" y2="0.284" gradientUnits="objectBoundingBox">
      <stop offset="0" stop-color="#e26539"/>
      <stop offset="1" stop-color="#ff9d51"/>
    </linearGradient>
    <clipPath id="clip-path-25">
      <rect id="Rectangle_10477" data-name="Rectangle 10477" width="26.946" height="14.077" fill="none"/>
    </clipPath>
    <clipPath id="clip-path-27">
      <path id="Path_29785" data-name="Path 29785" d="M979.093,748.7c2.317,2.881.305,6.156-.667,7.43-1.627,2.132-3.605,3.083-4.1,2.869-.3-.131-.654-.3-1.042-.476-2.42-1.127-5.733-2.67-7.705-1.711a2.544,2.544,0,0,0-1.367,1.788c-.83,3.558,3.625,8.14,4.136,8.651l1.336-1.336c-1.1-1.1-4.133-4.739-3.632-6.886a.663.663,0,0,1,.354-.519c1.162-.566,4.362.924,6.081,1.724.4.188.772.359,1.086.5,1.814.789,4.627-1.192,6.354-3.455,2.587-3.39,2.826-7.039.638-9.761a11.479,11.479,0,0,1-2.048-10.435l-1.784-.623a13.387,13.387,0,0,0,2.359,12.242" transform="translate(-964.11 -736.454)" fill="#de6336"/>
    </clipPath>
    <clipPath id="clip-path-28">
      <path id="Path_29786" data-name="Path 29786" d="M1031.521,819.1a12.024,12.024,0,0,1-1.133,3.625c-.932,1.5-2.392,1.556-3.886,2.193-2.826,1.2-3.617,4.795-2.315,7.347,1.852,3.629,7.2,3.691,10.494,2.334,5.66-2.334,10.51-11.9,7-17.563a5.691,5.691,0,0,0-3.974-2.623,5.923,5.923,0,0,0-.9-.07c-2.75,0-4.638,2.057-5.286,4.758" transform="translate(-1023.577 -814.339)" fill="#de6336"/>
    </clipPath>
    <clipPath id="clip-path-29">
      <path id="Path_29787" data-name="Path 29787" d="M753.278,2057.131a27.535,27.535,0,1,0,27.536-27.536,27.535,27.535,0,0,0-27.536,27.536" transform="translate(-753.278 -2029.596)" fill="none"/>
    </clipPath>
    <linearGradient id="linear-gradient-13" x1="-0.77" y1="1.025" x2="-0.769" y2="1.025" xlink:href="#linear-gradient-9"/>
    <clipPath id="clip-path-30">
      <path id="Path_29788" data-name="Path 29788" d="M762.989,2065.926a26.62,26.62,0,1,0,26.62-26.62,26.62,26.62,0,0,0-26.62,26.62" transform="translate(-762.989 -2039.306)" fill="none"/>
    </clipPath>
    <linearGradient id="linear-gradient-14" x1="0.203" y1="0.294" x2="0.793" y2="0.703" gradientUnits="objectBoundingBox">
      <stop offset="0" stop-color="#fd994f"/>
      <stop offset="1" stop-color="#e26739"/>
    </linearGradient>
    <clipPath id="clip-path-35">
      <path id="Path_29792" data-name="Path 29792" d="M956.11,2189.218a8.386,8.386,0,0,0,16.771,0c0-4.631-6.269-18.226-8.386-18.226-1.8,0-8.385,13.6-8.385,18.226" transform="translate(-956.11 -2170.992)" fill="none"/>
    </clipPath>
    <linearGradient id="linear-gradient-15" x1="-5.375" y1="2.064" x2="-5.37" y2="2.064" xlink:href="#linear-gradient-7"/>
    <clipPath id="clip-path-36">
      <path id="Path_29793" data-name="Path 29793" d="M325.546,2668.736a1.964,1.964,0,0,0,1.879,2.128c3.8.158,11.914.465,14.827.335a.639.639,0,0,0,.562-.875,1.427,1.427,0,0,0-.732-.771l-13.41-6.164-2.368-.383s-.509,2.879-.758,5.729" transform="translate(-325.538 -2663.007)" fill="#171717"/>
    </clipPath>
    <clipPath id="clip-path-37">
      <path id="Path_29794" data-name="Path 29794" d="M329.239,2639.957l.409,3.444s2.349,1.094,3.953-.138l-.973-3.838Z" transform="translate(-329.239 -2639.425)" fill="#ffb18c"/>
    </clipPath>
    <clipPath id="clip-path-38">
      <path id="Path_29795" data-name="Path 29795" d="M219.957,1973.5s-.939-23.623,0,.833c.84,21.886,7.279,44.8,8.623,49.37a1.153,1.153,0,0,0,1.143.827,11.654,11.654,0,0,0,3.829-.778.669.669,0,0,0,.392-.778c-4.7-19.709-3.93-63.688-3.754-64.588l-9.683,0Z" transform="translate(-219.54 -1958.381)" fill="#084b7f"/>
    </clipPath>
    <clipPath id="clip-path-39">
      <path id="Path_29796" data-name="Path 29796" d="M152.917,2684.253a1.2,1.2,0,0,0,1.054,1.435c1.253.123,3.183.281,4.728.271a1.194,1.194,0,0,0,1.183-1.333,10.075,10.075,0,0,0-2.352-5.525l-3.019-.164a20.708,20.708,0,0,0-1.593,5.316" transform="translate(-152.893 -2678.937)" fill="#171717"/>
    </clipPath>
    <clipPath id="clip-path-40">
      <path id="Path_29797" data-name="Path 29797" d="M162.509,2630.015l.955,5.208a3.367,3.367,0,0,0,2.812.193l-.456-5.6Z" transform="translate(-162.509 -2629.813)" fill="#ffb18c"/>
    </clipPath>
    <clipPath id="clip-path-41">
      <path id="Path_29798" data-name="Path 29798" d="M120.937,1949.333c-3.845,23.2.834,57.351,2.412,64.034a1.042,1.042,0,0,0,.842.791,7,7,0,0,0,3.007-.12.955.955,0,0,0,.687-.88c.212-5.4-.169-38.574,3.413-51.683a2.979,2.979,0,0,1,1.148-1.643l6.953-4.943.533-7.99Z" transform="translate(-119.457 -1946.899)" fill="#084b7f"/>
    </clipPath>
    <clipPath id="clip-path-42">
      <path id="Path_29799" data-name="Path 29799" d="M124.638,1509.677c-3.435,20.041-1.014,42.845-1.014,42.845,8.92,2.339,18.983-1.43,18.983-1.43,1.483-8.376,8.4-31.951,8.4-31.951,5.63-.7,4.407-5.318,8.226-7.466-2.913-3.377,1.574-1.74.977-4.279-4.074,1.266-8.2-1-11.75-1.055-.3,0-.607-.007-.91-.007a96.088,96.088,0,0,0-22.913,3.344" transform="translate(-122.796 -1506.334)" fill="none"/>
    </clipPath>
    <clipPath id="clip-path-44">
      <path id="Path_29801" data-name="Path 29801" d="M728.948,1206.79c-.441.6.008,3.763.036,4.5.808,1.54,2.179.967,2.061.59a3.057,3.057,0,0,0,2.3-1.355c.5-.711,1.029-1.619,1.417-2.317a3.1,3.1,0,0,0,.309-2.278,10.692,10.692,0,0,0-1.29-2.55l2.209-2.3a1.084,1.084,0,0,0-.136-1.506,58.9,58.9,0,0,0-6.9,7.216" transform="translate(-728.755 -1199.574)" fill="#ffb18c"/>
    </clipPath>
    <clipPath id="clip-path-45">
      <path id="Path_29802" data-name="Path 29802" d="M744.348,1257.49l-.632,1.7,1.795,1.991a23.161,23.161,0,0,1,1.052-4.1c.449-.729.216-1.083-.2-1.3Z" transform="translate(-743.716 -1255.784)" fill="#f7a178"/>
    </clipPath>
    <clipPath id="clip-path-46">
      <path id="Path_29803" data-name="Path 29803" d="M5.036,1555.083a25.466,25.466,0,0,1,9.356,2.507c.8-4.378,7.6-7.935,7.6-7.935l-4.42-11.157s-10.762,7.313-12.532,16.584" transform="translate(-5.036 -1538.499)" fill="none"/>
    </clipPath>
    <linearGradient id="linear-gradient-16" x1="-0.028" y1="6" x2="-0.022" y2="6" gradientUnits="objectBoundingBox">
      <stop offset="0" stop-color="#dae3fe"/>
      <stop offset="1" stop-color="#e9effd"/>
    </linearGradient>
    <clipPath id="clip-path-47">
      <path id="Path_29804" data-name="Path 29804" d="M235.788,1407.2l-3.666,10.6a.382.382,0,0,0,.174.46,8.618,8.618,0,0,0,8.939-.6,1.8,1.8,0,0,0,.828-1.285l1.187-9.176Z" transform="translate(-232.1 -1407.204)" fill="#ffb18c"/>
    </clipPath>
    <clipPath id="clip-path-48">
      <path id="Path_29805" data-name="Path 29805" d="M109.551,1490.71s-4.2.863-5.607,1.193-1.46,13.53-1.46,13.53l-2.08,61.083a.381.381,0,0,0,.393.395l14.9-.446,4.772-63.492-6.544-15.978Z" transform="translate(-100.405 -1486.995)" fill="none"/>
    </clipPath>
    <linearGradient id="linear-gradient-17" x1="-0.472" y1="1.494" x2="-0.467" y2="1.494" xlink:href="#linear-gradient-16"/>
    <clipPath id="clip-path-50">
      <path id="Path_29808" data-name="Path 29808" d="M344.47,1650.1v1.554l5.682-.345v-1.727Z" transform="translate(-344.47 -1649.584)" fill="none"/>
    </clipPath>
    <linearGradient id="linear-gradient-18" x1="-5.567" y1="21.105" x2="-5.55" y2="21.105" gradientUnits="objectBoundingBox">
      <stop offset="0" stop-color="#9cfffb"/>
      <stop offset="1" stop-color="#9bfffa"/>
    </linearGradient>
    <clipPath id="clip-path-52">
      <path id="Path_29811" data-name="Path 29811" d="M4.213,1719.693c7.142,13.064,26.565-.722,26.565-.722l-1.6-2.979s-12.083,6.829-16.161,1a4.583,4.583,0,0,1-.84-3.561,25.471,25.471,0,0,0-9.356-2.508,12.8,12.8,0,0,0,1.391,8.772" transform="translate(-2.577 -1710.921)" fill="none"/>
    </clipPath>
    <linearGradient id="linear-gradient-19" x1="0.002" y1="4.501" x2="0.005" y2="4.501" xlink:href="#linear-gradient-16"/>
    <clipPath id="clip-path-53">
      <path id="Path_29812" data-name="Path 29812" d="M284.879,1592.345c-4,.338-7.46.73-8.655.869a.672.672,0,0,0-.568.484l-6.595,23.03a.674.674,0,0,0,.641.859l15.3.142a.676.676,0,0,0,.544-.267c3.914-5.123,11.73-20.76,13.63-24.6a.674.674,0,0,0-.551-.97c-.866-.073-1.883-.1-3-.1-3.189,0-7.182.259-10.749.561" transform="translate(-269.036 -1591.784)" fill="none"/>
    </clipPath>
    <clipPath id="clip-path-55">
      <path id="Path_29815" data-name="Path 29815" d="M279.554,1716.775c-.371,1.34.548,5.118.548,5.118a3.475,3.475,0,0,0,3.143-1.1c.721-.708,1.149-1.415,1.735-1.034a1.222,1.222,0,0,0,1.79-.412l-1.049-1.157c1.536.747,1.7-.651,1.7-.651l-1.128-.873a1.37,1.37,0,0,0,1.961-1.183,35.049,35.049,0,0,0-5.216-1.391,4.087,4.087,0,0,0-.647-.054c-1.882,0-2.5,1.524-2.835,2.735" transform="translate(-279.466 -1714.04)" fill="#ffb18c"/>
    </clipPath>
    <clipPath id="clip-path-57">
      <path id="Path_29818" data-name="Path 29818" d="M267.845,1277.87l5.35,11.762,7.446-1.966s-3.719-12.962-3.838-13.128a1.784,1.784,0,0,0-1.542-.721c-2.791,0-7.416,4.053-7.416,4.053" transform="translate(-267.845 -1273.816)" fill="#ffb18c"/>
    </clipPath>
    <clipPath id="clip-path-58">
      <path id="Path_29819" data-name="Path 29819" d="M237.539,1220.422a2.833,2.833,0,0,0-2.171,2.886,1.074,1.074,0,0,1-1.093,1.072.732.732,0,0,0-.646.333,1.149,1.149,0,0,1-1.311.428,3.451,3.451,0,0,0-4.017,1.084,2.448,2.448,0,0,0,.26,3.587,1.107,1.107,0,0,1,.05,1.542,2.437,2.437,0,0,0,.195,3.816,1.113,1.113,0,0,0,.846.282c.816-.072,2.6-.089,3.35,1.018.807,1.191,2.967,5.742,3.731,7.369a1.106,1.106,0,0,0,.942.636,30.677,30.677,0,0,0,6.89-.637,1.1,1.1,0,0,0,.886-1.2,41.288,41.288,0,0,0-1.255-5.964,1.105,1.105,0,0,0-1.372-.766,9.757,9.757,0,0,0-3.245,2.38c-1.358,1.283-2.529-.08-2.86-.535a1.068,1.068,0,0,1-.141-.268l-2.3-6.319a1.108,1.108,0,0,1,.1-.97c.5-.8,1.656-2.3,3.211-2.194,2.117.139,5.706-.794,5.483-3.143-.193-2.029-1.758-4.642-4.277-4.642a4.109,4.109,0,0,0-1.26.207" transform="translate(-227.634 -1220.215)" fill="none"/>
    </clipPath>
    <clipPath id="clip-path-59">
      <path id="Path_29820" data-name="Path 29820" d="M245.559,1375.459c2.126,2.829,3.894.759,3.894.759s-.565-4.076-2.264-4.26a2.705,2.705,0,0,0-.3-.016c-1.583,0-2.942,1.375-1.333,3.517" transform="translate(-244.836 -1371.942)" fill="#ffb18c"/>
    </clipPath>
  </defs>
  <g id="Group_12897" data-name="Group 12897" transform="translate(-947 -3539.617)">
    <g id="Group_12872" data-name="Group 12872" transform="translate(16.539 493.617)">
      <g id="Group_12855" data-name="Group 12855" transform="translate(930.461 3046)">
        <g id="Group_12854" data-name="Group 12854" clip-path="url(#clip-path)">
          <g id="Group_12687" data-name="Group 12687" transform="translate(2.948 0)">
            <g id="Group_12686" data-name="Group 12686" clip-path="url(#clip-path-2)">
              <rect id="Rectangle_10451" data-name="Rectangle 10451" width="382.902" height="382.343" transform="matrix(0.729, -0.685, 0.685, 0.729, -142.197, 123.927)" fill="url(#linear-gradient)"/>
            </g>
          </g>
          <g id="Group_12689" data-name="Group 12689" transform="translate(0 0)">
            <g id="Group_12688" data-name="Group 12688" clip-path="url(#clip-path-3)">
              <path id="Path_29757" data-name="Path 29757" d="M244.591,190.2H17.351A17.018,17.018,0,0,0,0,207.379l4.589,200.7c.2,8.657,7.924,15.6,17.253,15.534l216.525-1.643c9.192-.07,16.85-7.064,17.111-15.653l6.049-199.083a16.653,16.653,0,0,0-16.94-17.029" transform="translate(0 -172.269)" fill="#e5e5e5"/>
              <path id="Path_29758" data-name="Path 29758" d="M410.578,376.666l-27.9.016a5.989,5.989,0,0,0-5.324,3.223l-15.184,29.7a5.943,5.943,0,0,1-5.283,3.186l-81.276.143a5.9,5.9,0,0,1-5.289-3.177L255.26,379.988a5.982,5.982,0,0,0-5.344-3.23l-28.2.016c-9.747.006-17.507,7.634-17.329,17.007l3.172,166.873c.166,8.711,7.883,15.7,17.232,15.63L406.007,575c9.234-.065,16.9-7.11,17.131-15.762l4.407-165.707c.247-9.3-7.346-16.869-16.967-16.863" transform="translate(-185.115 -341.151)" fill="#c1c1c1"/>
              <path id="Path_29759" data-name="Path 29759" d="M992.432,379.051a4.466,4.466,0,0,0-3.8-2.067l-83.724.048a4.541,4.541,0,0,0-3.843,2.076,4.248,4.248,0,0,0-.178,4.258l10.2,19.537a5.9,5.9,0,0,0,5.248,3.111l60.7-.092a5.943,5.943,0,0,0,5.249-3.119l10.3-19.508a4.241,4.241,0,0,0-.147-4.243" transform="translate(-815.5 -341.439)" fill="#fff"/>
            </g>
          </g>
          <g id="Group_12691" data-name="Group 12691" transform="translate(130.271 39.715)">
            <g id="Group_12690" data-name="Group 12690" clip-path="url(#clip-path-4)">
              <rect id="Rectangle_10453" data-name="Rectangle 10453" width="2.037" height="11.364" transform="translate(-0.002 0)" fill="url(#linear-gradient-2)"/>
            </g>
          </g>
          <g id="Group_12693" data-name="Group 12693" transform="translate(113.534 41.952)">
            <g id="Group_12692" data-name="Group 12692" clip-path="url(#clip-path-5)">
              <rect id="Rectangle_10454" data-name="Rectangle 10454" width="11.478" height="12.176" transform="matrix(0.838, -0.546, 0.546, 0.838, -4.58, 2.904)" fill="url(#linear-gradient-3)"/>
            </g>
          </g>
          <g id="Group_12695" data-name="Group 12695" transform="translate(101.688 49.891)">
            <g id="Group_12694" data-name="Group 12694" clip-path="url(#clip-path-6)">
              <rect id="Rectangle_10455" data-name="Rectangle 10455" width="11.966" height="12.335" transform="matrix(0.614, -0.789, 0.789, 0.614, -3.799, 4.732)" fill="url(#linear-gradient-4)"/>
            </g>
          </g>
          <g id="Group_12697" data-name="Group 12697" transform="translate(141.614 41.925)">
            <g id="Group_12696" data-name="Group 12696" clip-path="url(#clip-path-7)">
              <rect id="Rectangle_10456" data-name="Rectangle 10456" width="12.202" height="11.517" transform="matrix(0.546, -0.838, 0.838, 0.546, -4.58, 6.84)" fill="url(#linear-gradient-5)"/>
            </g>
          </g>
          <g id="Group_12699" data-name="Group 12699" transform="translate(151.013 49.831)">
            <g id="Group_12698" data-name="Group 12698" clip-path="url(#clip-path-8)">
              <rect id="Rectangle_10457" data-name="Rectangle 10457" width="12.35" height="11.979" transform="translate(-3.802 2.871) rotate(-37.908)" fill="url(#linear-gradient-6)"/>
            </g>
          </g>
          <g id="Group_12701" data-name="Group 12701" transform="translate(129.719 53.92)">
            <g id="Group_12700" data-name="Group 12700" clip-path="url(#clip-path-9)">
              <rect id="Rectangle_10458" data-name="Rectangle 10458" width="9.201" height="10.035" transform="translate(-5.242 4.483) rotate(-40.539)" fill="url(#linear-gradient-7)"/>
            </g>
          </g>
          <g id="Group_12703" data-name="Group 12703" transform="translate(9.71 25.375)">
            <g id="Group_12702" data-name="Group 12702" clip-path="url(#clip-path-10)">
              <rect id="Rectangle_10459" data-name="Rectangle 10459" width="29.695" height="82.309" transform="translate(-0.17 0)" fill="#084b7f"/>
            </g>
          </g>
          <g id="Group_12705" data-name="Group 12705" transform="translate(247.039 177.782)">
            <g id="Group_12704" data-name="Group 12704" clip-path="url(#clip-path-11)">
              <rect id="Rectangle_10460" data-name="Rectangle 10460" width="2.435" height="51.868" transform="translate(-0.007 0)" fill="#084b7f"/>
            </g>
          </g>
          <g id="Group_12716" data-name="Group 12716" transform="translate(194.403 240.528)">
            <g id="Group_12715" data-name="Group 12715" clip-path="url(#clip-path-12)">
              <rect id="Rectangle_10465" data-name="Rectangle 10465" width="4.469" height="3.998" transform="matrix(0.631, -0.776, 0.776, 0.631, -2.326, 2.791)" fill="url(#linear-gradient-8)"/>
            </g>
          </g>
          <g id="Group_12718" data-name="Group 12718" transform="translate(72.341 126.313)">
            <g id="Group_12717" data-name="Group 12717" clip-path="url(#clip-path-13)">
              <rect id="Rectangle_10466" data-name="Rectangle 10466" width="77.761" height="77.761" transform="translate(-27.364 24.47) rotate(-41.804)" fill="url(#linear-gradient-9)"/>
            </g>
          </g>
          <g id="Group_12720" data-name="Group 12720" transform="translate(73.257 127.228)">
            <g id="Group_12719" data-name="Group 12719" clip-path="url(#clip-path-14)">
              <rect id="Rectangle_10467" data-name="Rectangle 10467" width="74.095" height="74.095" transform="translate(-24.94 17.313) rotate(-34.768)" fill="url(#linear-gradient-10)"/>
            </g>
          </g>
          <g id="Group_12731" data-name="Group 12731" transform="translate(0 0)">
            <g id="Group_12730" data-name="Group 12730" clip-path="url(#clip-path-3)">
              <g id="Group_12723" data-name="Group 12723" transform="translate(75.056 149.176)" opacity="0.78">
                <g id="Group_12722" data-name="Group 12722">
                  <g id="Group_12721" data-name="Group 12721" clip-path="url(#clip-path-16)">
                    <path id="Path_29775" data-name="Path 29775" d="M796.3,1585.76h-.015a.281.281,0,0,1-.266-.3,25.024,25.024,0,0,1,.361-3.122.281.281,0,1,1,.553.1,24.5,24.5,0,0,0-.353,3.051.281.281,0,0,1-.281.267" transform="translate(-796.02 -1582.111)" fill="#fff"/>
                  </g>
                </g>
              </g>
              <g id="Group_12726" data-name="Group 12726" transform="translate(77.645 128.993)" opacity="0.78">
                <g id="Group_12725" data-name="Group 12725">
                  <g id="Group_12724" data-name="Group 12724" clip-path="url(#clip-path-17)">
                    <path id="Path_29776" data-name="Path 29776" d="M823.756,1382.141a.278.278,0,0,1-.127-.03.281.281,0,0,1-.124-.378,24.75,24.75,0,0,1,22.2-13.67,25.053,25.053,0,0,1,4.483.4.281.281,0,1,1-.1.553,24.517,24.517,0,0,0-4.383-.394,24.191,24.191,0,0,0-21.7,13.361.281.281,0,0,1-.251.155" transform="translate(-823.475 -1368.063)" fill="#fff"/>
                  </g>
                </g>
              </g>
              <g id="Group_12729" data-name="Group 12729" transform="translate(77.926 131.897)" opacity="0.9">
                <g id="Group_12728" data-name="Group 12728">
                  <g id="Group_12727" data-name="Group 12727" clip-path="url(#clip-path-18)">
                    <path id="Path_29777" data-name="Path 29777" d="M871.518,1421.392a22.53,22.53,0,1,1-22.531-22.53,22.531,22.531,0,0,1,22.531,22.53" transform="translate(-826.457 -1398.862)" fill="#fff"/>
                  </g>
                </g>
              </g>
            </g>
          </g>
          <g id="Group_12733" data-name="Group 12733" transform="translate(86.055 143.408)">
            <g id="Group_12732" data-name="Group 12732" clip-path="url(#clip-path-19)">
              <path id="Path_29838" data-name="Path 29838" d="M0,0H29.872V26.581H0Z" transform="translate(0 0)" fill="#de6336"/>
            </g>
          </g>
          <g id="Group_12735" data-name="Group 12735" transform="translate(81.929 149.316)">
            <g id="Group_12734" data-name="Group 12734" clip-path="url(#clip-path-20)">
              <rect id="Rectangle_10473" data-name="Rectangle 10473" width="22.437" height="37.718" transform="matrix(0.319, -0.948, 0.948, 0.319, -3.505, 10.414)" fill="#ae2a30"/>
            </g>
          </g>
          <g id="Group_12737" data-name="Group 12737" transform="translate(75.859 58.448)">
            <g id="Group_12736" data-name="Group 12736" clip-path="url(#clip-path-21)">
              <rect id="Rectangle_10474" data-name="Rectangle 10474" width="76.88" height="76.88" transform="matrix(0.811, -0.585, 0.585, 0.811, -26.128, 18.845)" fill="url(#linear-gradient-11)"/>
            </g>
          </g>
          <g id="Group_12739" data-name="Group 12739" transform="translate(76.775 59.364)">
            <g id="Group_12738" data-name="Group 12738" clip-path="url(#clip-path-22)">
              <rect id="Rectangle_10475" data-name="Rectangle 10475" width="74.095" height="74.095" transform="translate(-24.94 17.313) rotate(-34.768)" fill="url(#linear-gradient-12)"/>
            </g>
          </g>
          <g id="Group_12750" data-name="Group 12750" transform="translate(0 0)">
            <g id="Group_12749" data-name="Group 12749" clip-path="url(#clip-path-3)">
              <g id="Group_12742" data-name="Group 12742" transform="translate(78.574 81.312)" opacity="0.78">
                <g id="Group_12741" data-name="Group 12741">
                  <g id="Group_12740" data-name="Group 12740" clip-path="url(#clip-path-16)">
                    <path id="Path_29782" data-name="Path 29782" d="M833.614,866.015H833.6a.281.281,0,0,1-.266-.3,25.021,25.021,0,0,1,.361-3.122.281.281,0,1,1,.554.1,24.487,24.487,0,0,0-.353,3.051.281.281,0,0,1-.281.267" transform="translate(-833.333 -862.367)" fill="#fff"/>
                  </g>
                </g>
              </g>
              <g id="Group_12745" data-name="Group 12745" transform="translate(81.163 61.129)" opacity="0.78">
                <g id="Group_12744" data-name="Group 12744">
                  <g id="Group_12743" data-name="Group 12743" clip-path="url(#clip-path-25)">
                    <path id="Path_29783" data-name="Path 29783" d="M861.069,662.395a.281.281,0,0,1-.251-.408,24.75,24.75,0,0,1,22.2-13.67,25.051,25.051,0,0,1,4.483.4.281.281,0,1,1-.1.553,24.511,24.511,0,0,0-4.383-.394,24.191,24.191,0,0,0-21.7,13.36.281.281,0,0,1-.251.155" transform="translate(-860.788 -648.317)" fill="#fff"/>
                  </g>
                </g>
              </g>
              <g id="Group_12748" data-name="Group 12748" transform="translate(81.444 64.033)" opacity="0.9">
                <g id="Group_12747" data-name="Group 12747">
                  <g id="Group_12746" data-name="Group 12746" clip-path="url(#clip-path-18)">
                    <path id="Path_29784" data-name="Path 29784" d="M908.831,701.646a22.53,22.53,0,1,1-22.53-22.53,22.53,22.53,0,0,1,22.53,22.53" transform="translate(-863.77 -679.116)" fill="#fff"/>
                  </g>
                </g>
              </g>
            </g>
          </g>
          <g id="Group_12752" data-name="Group 12752" transform="translate(90.905 69.44)">
            <g id="Group_12751" data-name="Group 12751" clip-path="url(#clip-path-27)">
              <rect id="Rectangle_10480" data-name="Rectangle 10480" width="19.371" height="30.793" transform="translate(-0.727 0)" fill="#de6336"/>
            </g>
          </g>
          <g id="Group_12754" data-name="Group 12754" transform="translate(96.512 76.783)">
            <g id="Group_12753" data-name="Group 12753" clip-path="url(#clip-path-28)">
              <rect id="Rectangle_10481" data-name="Rectangle 10481" width="22.306" height="21.614" transform="translate(-0.693 0)" fill="#de6336"/>
            </g>
          </g>
          <g id="Group_12756" data-name="Group 12756" transform="translate(71.026 191.369)">
            <g id="Group_12755" data-name="Group 12755" clip-path="url(#clip-path-29)">
              <rect id="Rectangle_10482" data-name="Rectangle 10482" width="77.607" height="77.607" transform="matrix(0.645, -0.764, 0.764, 0.645, -27.147, 32.142)" fill="url(#linear-gradient-13)"/>
            </g>
          </g>
          <g id="Group_12758" data-name="Group 12758" transform="translate(71.942 192.285)">
            <g id="Group_12757" data-name="Group 12757" clip-path="url(#clip-path-30)">
              <path id="Path_29839" data-name="Path 29839" d="M0,0H74.095V74.095H0Z" transform="translate(-24.94 17.313) rotate(-34.768)" fill="url(#linear-gradient-14)"/>
            </g>
          </g>
          <g id="Group_12769" data-name="Group 12769" transform="translate(0 0)">
            <g id="Group_12768" data-name="Group 12768" clip-path="url(#clip-path-3)">
              <g id="Group_12761" data-name="Group 12761" transform="translate(73.741 214.233)" opacity="0.78">
                <g id="Group_12760" data-name="Group 12760">
                  <g id="Group_12759" data-name="Group 12759" clip-path="url(#clip-path-16)">
                    <path id="Path_29789" data-name="Path 29789" d="M782.354,2275.728h-.015a.281.281,0,0,1-.266-.3,24.971,24.971,0,0,1,.361-3.121.281.281,0,1,1,.553.1,24.5,24.5,0,0,0-.353,3.051.281.281,0,0,1-.28.267" transform="translate(-782.073 -2272.079)" fill="#fff"/>
                  </g>
                </g>
              </g>
              <g id="Group_12764" data-name="Group 12764" transform="translate(76.33 194.05)" opacity="0.78">
                <g id="Group_12763" data-name="Group 12763">
                  <g id="Group_12762" data-name="Group 12762" clip-path="url(#clip-path-17)">
                    <path id="Path_29790" data-name="Path 29790" d="M809.809,2072.107a.277.277,0,0,1-.126-.03.281.281,0,0,1-.124-.378,24.75,24.75,0,0,1,22.2-13.67,25.075,25.075,0,0,1,4.483.4.281.281,0,1,1-.1.553,24.517,24.517,0,0,0-4.383-.395,24.192,24.192,0,0,0-21.7,13.361.28.28,0,0,1-.251.155" transform="translate(-809.528 -2058.029)" fill="#fff"/>
                  </g>
                </g>
              </g>
              <g id="Group_12767" data-name="Group 12767" transform="translate(76.611 196.954)" opacity="0.9">
                <g id="Group_12766" data-name="Group 12766">
                  <g id="Group_12765" data-name="Group 12765" clip-path="url(#clip-path-18)">
                    <path id="Path_29791" data-name="Path 29791" d="M857.572,2111.358a22.53,22.53,0,1,1-22.53-22.53,22.53,22.53,0,0,1,22.53,22.53" transform="translate(-812.511 -2088.828)" fill="#fff"/>
                  </g>
                </g>
              </g>
            </g>
          </g>
          <g id="Group_12771" data-name="Group 12771" transform="translate(90.151 204.701)">
            <g id="Group_12770" data-name="Group 12770" clip-path="url(#clip-path-35)">
              <rect id="Rectangle_10488" data-name="Rectangle 10488" width="16.771" height="26.612" fill="url(#linear-gradient-15)"/>
            </g>
          </g>
          <g id="Group_12773" data-name="Group 12773" transform="translate(30.695 251.093)">
            <g id="Group_12772" data-name="Group 12772" clip-path="url(#clip-path-36)">
              <rect id="Rectangle_10489" data-name="Rectangle 10489" width="17.989" height="18.535" transform="matrix(0.677, -0.736, 0.736, 0.677, -4.236, 4.51)" fill="#171717"/>
            </g>
          </g>
          <g id="Group_12775" data-name="Group 12775" transform="translate(31.044 248.87)">
            <g id="Group_12774" data-name="Group 12774" clip-path="url(#clip-path-37)">
              <rect id="Rectangle_10490" data-name="Rectangle 10490" width="4.362" height="5.069" transform="translate(0 0)" fill="#ffb18c"/>
            </g>
          </g>
          <g id="Group_12777" data-name="Group 12777" transform="translate(20.7 184.654)">
            <g id="Group_12776" data-name="Group 12776" clip-path="url(#clip-path-38)">
              <rect id="Rectangle_10491" data-name="Rectangle 10491" width="68.992" height="56.404" transform="translate(-36.194 39.844) rotate(-53.58)" fill="#084b7f"/>
            </g>
          </g>
          <g id="Group_12779" data-name="Group 12779" transform="translate(14.416 252.595)">
            <g id="Group_12778" data-name="Group 12778" clip-path="url(#clip-path-39)">
              <rect id="Rectangle_10492" data-name="Rectangle 10492" width="10.044" height="10.054" transform="translate(-3.621 3.811) rotate(-47.406)" fill="#171717"/>
            </g>
          </g>
          <g id="Group_12781" data-name="Group 12781" transform="translate(15.323 247.963)">
            <g id="Group_12780" data-name="Group 12780" clip-path="url(#clip-path-40)">
              <rect id="Rectangle_10493" data-name="Rectangle 10493" width="3.766" height="6.112" fill="#ffb18c"/>
            </g>
          </g>
          <g id="Group_12783" data-name="Group 12783" transform="translate(11.264 183.572)">
            <g id="Group_12782" data-name="Group 12782" clip-path="url(#clip-path-41)">
              <rect id="Rectangle_10494" data-name="Rectangle 10494" width="67.854" height="58.438" transform="translate(-34.599 43.689) rotate(-53.58)" fill="#084b7f"/>
            </g>
          </g>
          <g id="Group_12785" data-name="Group 12785" transform="translate(11.578 142.031)">
            <g id="Group_12784" data-name="Group 12784" clip-path="url(#clip-path-42)">
              <rect id="Rectangle_10495" data-name="Rectangle 10495" width="39.604" height="48.528" transform="translate(-1.592 0)" fill="#ae2a30"/>
            </g>
          </g>
          <g id="Group_12787" data-name="Group 12787" transform="translate(0 0)">
            <g id="Group_12786" data-name="Group 12786" clip-path="url(#clip-path-3)">
              <path id="Path_29800" data-name="Path 29800" d="M541.892,1318.028a2.2,2.2,0,0,0-2.565-.72c-1.7,7.162-10.586,12.97-19.72,15.808a24.7,24.7,0,0,0,4.883,10.214c15.159-8.523,17.4-25.3,17.4-25.3" transform="translate(-470.614 -1192.961)" fill="#fff"/>
            </g>
          </g>
          <g id="Group_12789" data-name="Group 12789" transform="translate(68.714 113.107)">
            <g id="Group_12788" data-name="Group 12788" clip-path="url(#clip-path-44)">
              <rect id="Rectangle_10497" data-name="Rectangle 10497" width="15.401" height="12.762" transform="translate(-5.131 11.111) rotate(-66.274)" fill="#ffb18c"/>
            </g>
          </g>
          <g id="Group_12791" data-name="Group 12791" transform="translate(70.124 118.407)">
            <g id="Group_12790" data-name="Group 12790" clip-path="url(#clip-path-45)">
              <rect id="Rectangle_10498" data-name="Rectangle 10498" width="6.321" height="5.705" transform="matrix(0.545, -0.838, 0.838, 0.545, -2.467, 3.792)" fill="#f7a178"/>
            </g>
          </g>
          <g id="Group_12793" data-name="Group 12793" transform="translate(0.475 145.064)">
            <g id="Group_12792" data-name="Group 12792" clip-path="url(#clip-path-46)">
              <rect id="Rectangle_10499" data-name="Rectangle 10499" width="16.952" height="19.092" transform="translate(0 0)" fill="url(#linear-gradient-16)"/>
            </g>
          </g>
          <g id="Group_12795" data-name="Group 12795" transform="translate(21.885 132.684)">
            <g id="Group_12794" data-name="Group 12794" clip-path="url(#clip-path-47)">
              <rect id="Rectangle_10500" data-name="Rectangle 10500" width="11.189" height="13.212" transform="translate(-0.039 0)" fill="#ffb18c"/>
            </g>
          </g>
          <g id="Group_12797" data-name="Group 12797" transform="translate(9.467 140.208)">
            <g id="Group_12796" data-name="Group 12796" clip-path="url(#clip-path-48)">
              <rect id="Rectangle_10501" data-name="Rectangle 10501" width="20.07" height="79.919" transform="translate(-0.003 0)" fill="url(#linear-gradient-17)"/>
            </g>
          </g>
          <g id="Group_12799" data-name="Group 12799" transform="translate(0 0)">
            <g id="Group_12798" data-name="Group 12798" clip-path="url(#clip-path-3)">
              <path id="Path_29806" data-name="Path 29806" d="M267.376,1502.153l2.535-15.158,2.169,1.907,4.573-.044.979,12.822-6.526,65.61a.382.382,0,0,1-.434.34l-8.069-1.164Z" transform="translate(-237.843 -1346.788)" fill="#fff"/>
              <path id="Path_29807" data-name="Path 29807" d="M372.318,1486.376s7.35-.507,11.594-2.14c4.983,8.856,6.278,9.116,6.278,9.116a27.972,27.972,0,0,1-16.292,5.828c-10.257.474-1.58-12.8-1.58-12.8" transform="translate(-334.108 -1344.289)" fill="#fff"/>
            </g>
          </g>
          <g id="Group_12801" data-name="Group 12801" transform="translate(32.48 155.538)">
            <g id="Group_12800" data-name="Group 12800" clip-path="url(#clip-path-50)">
              <rect id="Rectangle_10503" data-name="Rectangle 10503" width="5.822" height="5.001" transform="translate(-0.982 0.707) rotate(-35.741)" fill="url(#linear-gradient-18)"/>
            </g>
          </g>
          <g id="Group_12803" data-name="Group 12803" transform="translate(0 0)">
            <g id="Group_12802" data-name="Group 12802" clip-path="url(#clip-path-3)">
              <path id="Path_29809" data-name="Path 29809" d="M214.827,1556.361a.232.232,0,0,1-.111-.028l-5.028-2.7a.235.235,0,0,1-.121-.172l-.681-4.581-1.779-.316a.235.235,0,0,1-.183-.162l-1.94-6.3a.235.235,0,1,1,.448-.138l1.9,6.166,1.8.32a.235.235,0,0,1,.191.2l.688,4.632,4.925,2.645a.234.234,0,0,1-.111.441" transform="translate(-185.647 -1396.421)" fill="#91b3fa"/>
              <path id="Path_29810" data-name="Path 29810" d="M320.458,1521.788a.176.176,0,0,1-.152-.263l2.628-4.608-.432-2.594a.176.176,0,0,1,.091-.184l2.089-1.112-.537-7.482a.176.176,0,1,1,.351-.025l.545,7.6a.176.176,0,0,1-.093.168l-2.078,1.106.422,2.53a.177.177,0,0,1-.021.116l-2.66,4.662a.176.176,0,0,1-.153.088" transform="translate(-290.083 -1363.419)" fill="#91b3fa"/>
            </g>
          </g>
          <g id="Group_12805" data-name="Group 12805" transform="translate(0.243 161.322)">
            <g id="Group_12804" data-name="Group 12804" clip-path="url(#clip-path-52)">
              <rect id="Rectangle_10505" data-name="Rectangle 10505" width="28.49" height="21.837" transform="translate(-0.288)" fill="url(#linear-gradient-19)"/>
            </g>
          </g>
          <g id="Group_12807" data-name="Group 12807" transform="translate(25.367 150.088)">
            <g id="Group_12806" data-name="Group 12806" clip-path="url(#clip-path-53)">
              <rect id="Rectangle_10506" data-name="Rectangle 10506" width="35.665" height="32.337" transform="translate(-5.984 1.413) rotate(-13.496)" fill="#8d8d8d"/>
            </g>
          </g>
          <g id="Group_12809" data-name="Group 12809" transform="translate(0 0)">
            <g id="Group_12808" data-name="Group 12808" clip-path="url(#clip-path-3)">
              <path id="Path_29813" data-name="Path 29813" d="M438.753,1568.859l4.781-.8a.343.343,0,0,1,.382.446l-.473,1.434a.343.343,0,0,1-.28.233l-4.6.615a.343.343,0,0,1-.38-.418l.293-1.252a.343.343,0,0,1,.278-.26" transform="translate(-396.858 -1420.207)" fill="#656565"/>
              <path id="Path_29814" data-name="Path 29814" d="M406.271,1586.669l.394-2.052a.474.474,0,0,1,.418-.382l9.657-.98a.474.474,0,0,1,.509.583l-.614,2.557a.474.474,0,0,1-.437.363l-9.437.475a.474.474,0,0,1-.49-.563" transform="translate(-367.956 -1433.969)" fill="#656565"/>
            </g>
          </g>
          <g id="Group_12811" data-name="Group 12811" transform="translate(26.351 161.616)">
            <g id="Group_12810" data-name="Group 12810" clip-path="url(#clip-path-55)">
              <rect id="Rectangle_10508" data-name="Rectangle 10508" width="9.069" height="8.072" transform="translate(-0.282 0)" fill="#ffb18c"/>
            </g>
          </g>
          <g id="Group_12813" data-name="Group 12813" transform="translate(0 0)">
            <g id="Group_12812" data-name="Group 12812" clip-path="url(#clip-path-3)">
              <path id="Path_29816" data-name="Path 29816" d="M134.326,1763.411a6.268,6.268,0,0,1-2.973-.6.235.235,0,0,1,.226-.411c3.188,1.75,11.1-1.263,11.181-1.294a4.131,4.131,0,0,0,2.076-1.584.234.234,0,0,1,.417.214,4.523,4.523,0,0,1-2.334,1.811,28.924,28.924,0,0,1-8.594,1.869" transform="translate(-118.858 -1593.498)" fill="#91b3fa"/>
              <path id="Path_29817" data-name="Path 29817" d="M115.6,1819.305c-.126,0-.23-.457-.234-.584s.1-.417.226-.421c9.139-.315,14.353-4.589,14.4-4.631a.234.234,0,0,1,.33-.012.842.842,0,0,1-.033.665c-.053.043-5.379,4.667-14.686,4.983Z" transform="translate(-104.489 -1642.592)" fill="#91b3fa"/>
            </g>
          </g>
          <g id="Group_12815" data-name="Group 12815" transform="translate(25.255 120.107)">
            <g id="Group_12814" data-name="Group 12814" clip-path="url(#clip-path-57)">
              <rect id="Rectangle_10510" data-name="Rectangle 10510" width="16.109" height="13.161" transform="matrix(0.023, -1, 1, 0.023, -0.368, 15.807)" fill="#ffb18c"/>
            </g>
          </g>
          <g id="Group_12817" data-name="Group 12817" transform="translate(21.463 115.053)">
            <g id="Group_12816" data-name="Group 12816" clip-path="url(#clip-path-58)">
              <rect id="Rectangle_10511" data-name="Rectangle 10511" width="29.304" height="30.634" transform="translate(-12.23 8.328) rotate(-35.751)" fill="#4a220f"/>
            </g>
          </g>
          <g id="Group_12819" data-name="Group 12819" transform="translate(23.085 129.359)">
            <g id="Group_12818" data-name="Group 12818" clip-path="url(#clip-path-59)">
              <rect id="Rectangle_10512" data-name="Rectangle 10512" width="7.091" height="6.382" transform="translate(-1.815 6.207) rotate(-81.486)" fill="#ffb18c"/>
            </g>
          </g>
          <g id="Group_12821" data-name="Group 12821" transform="translate(0 0)">
            <g id="Group_12820" data-name="Group 12820" clip-path="url(#clip-path-3)">
              <path id="Path_29821" data-name="Path 29821" d="M345.471,1236.843a.235.235,0,0,1-.2-.363,3.04,3.04,0,0,0,.357-2.347,3.711,3.711,0,0,0-2.449-2.1.235.235,0,0,1,.167-.438,4.139,4.139,0,0,1,2.729,2.4,3.469,3.469,0,0,1-.414,2.745.234.234,0,0,1-.2.1" transform="translate(-310.688 -1115.451)" fill="#91b3fa"/>
            </g>
          </g>
        </g>
      </g>
    </g>
    <g id="Component11One" transform="translate(1012.345 3580.212)">
      <g id="Group_12896" data-name="Group 12896" transform="translate(80.63 0.004)">
        <g id="Group_12895" data-name="Group 12895" transform="translate(0 0)">
          <g id="Group_12894" data-name="Group 12894" transform="translate(3.598)">
            <g id="Group_12875" data-name="Group 12875" transform="translate(7.502 184.986)">
              <path id="Path_29970" data-name="Path 29970" d="M-127.007,104.9h0V98.436l-24.356.918-2.69-.547a16.5,16.5,0,0,0-3.054.025l-3.52.875-27.582,1.047V106.9c-.093.238.006.556.636.936,1.507.914,31.044,8,31.044,8a4.351,4.351,0,0,0,2.476,0c1.72-.355,26.422-10.109,26.422-10.109S-126.95,105.316-127.007,104.9Z" transform="translate(188.241 -92.283)" fill="#d17d81"/>
              <path id="Path_29971" data-name="Path 29971" d="M-172.665,99.021c-1.288-.259-2.072-.42-2.072-.42a16.5,16.5,0,0,0-3.054.025l-.539.135v16.6c.713.173,1.118.269,1.118.269a4.351,4.351,0,0,0,2.476,0c.25-.053,1-.309,2.072-.7Z" transform="translate(208.925 -92.075)" fill="#86b8ba" style="mix-blend-mode: multiply;isolation: isolate"/>
              <path id="Path_29972" data-name="Path 29972" d="M-157.1,96.532l-30.467,7.549s-1.5.539,0,1.454,31.044,8,31.044,8a4.351,4.351,0,0,0,2.476,0c1.72-.355,26.422-10.106,26.422-10.106s1.414-.858,0-1.352-26.422-5.568-26.422-5.568a16.785,16.785,0,0,0-3.054.026Z" transform="translate(188.239 -96.446)" fill="#ae2a30"/>
              <path id="Path_29973" data-name="Path 29973" d="M-133.911,102.07c-1.417-.494-26.422-5.568-26.422-5.568a16.785,16.785,0,0,0-3.054.025l-21.846,5.413c7.793-1.041,15.985-.6,22.9,2.76a26.58,26.58,0,0,1,8.429,6.5c7.849-2.989,19.99-7.778,19.99-7.778S-132.5,102.566-133.911,102.07Z" transform="translate(194.521 -96.444)" fill="#ae2a30" opacity="0.5" style="mix-blend-mode: multiply;isolation: isolate"/>
              <g id="Group_12874" data-name="Group 12874" transform="translate(5.945 6.85)" style="mix-blend-mode: screen;isolation: isolate">
                <path id="Path_29974" data-name="Path 29974" d="M-160.726,107.767s-16.344-3.221-25.588-5.289c8.886,2.368,25.767,6.416,25.767,6.416a4.351,4.351,0,0,0,2.476,0c1.72-.355,26.422-10.106,26.422-10.106a2.145,2.145,0,0,0,.182-.13c-3.353,1.17-25.2,8.781-26.786,9.109A4.3,4.3,0,0,1-160.726,107.767Z" transform="translate(186.314 -98.658)" fill="#cce2da"/>
              </g>
              <path id="Path_29975" data-name="Path 29975" d="M-180.512,99.587l-3.792.9,13.12,2.747,3.228-.959Z" transform="translate(196.454 -89.87)" fill="#4d5350"/>
              <path id="Path_29976" data-name="Path 29976" d="M-183.077,99.587l9.328,3.652,3.228-.959Z" transform="translate(199.018 -89.87)" fill="#4d5350" style="mix-blend-mode: multiply;isolation: isolate"/>
            </g>
            <g id="Group_12879" data-name="Group 12879" transform="translate(21.16 112.943)">
              <g id="Group_12877" data-name="Group 12877" transform="translate(0 66.57)">
                <path id="Path_29977" data-name="Path 29977" d="M-182.267,98.284s-.13.077-.309.191a1.47,1.47,0,0,0-.512.491.665.665,0,0,0-.053.343,1.631,1.631,0,0,0,.1.37c.037.121.093.216.114.287s.049.12.049.12a.96.96,0,0,1-.1-.077,1.46,1.46,0,0,1-.235-.241,1.289,1.289,0,0,1-.232-.442.948.948,0,0,1-.031-.3.689.689,0,0,1,.071-.284.953.953,0,0,1,.741-.471A1.186,1.186,0,0,1-182.267,98.284Z" transform="translate(184.515 -87.162)" fill="#e26538"/>
                <path id="Path_29978" data-name="Path 29978" d="M-163.232,94.668c-1.81.327-2.606-.188-4.424.114-.318,2.4-9.451,9.171-14.91,10.967-.852-.4-1.627.58-1.047,1.5a1.01,1.01,0,0,0,.656.482,1.01,1.01,0,0,0,.8-.158,1.11,1.11,0,0,0,.688.581,1.109,1.109,0,0,0,.892-.121,2.744,2.744,0,0,0,1.732.2,1.586,1.586,0,0,0,2.109.105,2.66,2.66,0,0,0,3.622-.763c2.81.074,3.816-.077,6.534-2.081,2.622-1.923,3.588-2.331,4.8-2.464s2.285-2.581.2-5.8C-162.488,95.844-162.957,95.153-163.232,94.668Z" transform="translate(183.815 -94.668)" fill="#f5d9bf"/>
                <g id="Group_12876" data-name="Group 12876" transform="translate(0.03)" style="mix-blend-mode: multiply;isolation: isolate">
                  <path id="Path_29979" data-name="Path 29979" d="M-163.253,94.668c-.337.062-.673.127-1,.185a23.384,23.384,0,0,1,2.634,4.391c1.164,3.048-.858,3.178-2.433,3.18-.938,0-3.412,4.424-9.309,4.564-.926.009-2.353,2.236-4.187.173.244,1.212-1.649,1.195-2.131-.253-.164,1.016-1.464.864-1.81-.294.034,1.223-1.127.9-1.2-.1-.4,1.01-1.136.6-1.118-.04-.028.837.744,1.714,1.565,1.065.426.491.985,1,1.637.463a2.406,2.406,0,0,0,1.736.235,1.567,1.567,0,0,0,2.109.093,2.934,2.934,0,0,0,1.767.392,2.863,2.863,0,0,0,1.856-1.144c2.81.074,3.816-.077,6.534-2.081,2.622-1.923,3.588-2.331,4.8-2.464s2.285-2.581.2-5.8C-162.509,95.844-162.979,95.153-163.253,94.668Z" transform="translate(183.806 -94.668)" fill="#e8b98f"/>
                </g>
                <path id="Path_29980" data-name="Path 29980" d="M-180.829,101.69a1.36,1.36,0,0,1-.241-.189,1.929,1.929,0,0,1-.247-.265,1.806,1.806,0,0,1-.269-.4,3.043,3.043,0,0,1-.213-.539,3.678,3.678,0,0,1-.053-.617,2.389,2.389,0,0,1,.114-.624,1.683,1.683,0,0,1,.306-.547,1.774,1.774,0,0,1,.475-.368,1.9,1.9,0,0,1,.528-.213,2.741,2.741,0,0,1,1.022-.067,2.828,2.828,0,0,1,.741.191.98.98,0,0,1,.256.161.863.863,0,0,0-.265-.083,2.692,2.692,0,0,0-.7-.053,3.522,3.522,0,0,0-.923.173,2.315,2.315,0,0,0-.46.216,1.386,1.386,0,0,0-.392.327.763.763,0,0,0-.148.2.614.614,0,0,0-.117.238,2.625,2.625,0,0,0-.124.522,3.723,3.723,0,0,0,0,.525,2.914,2.914,0,0,0,.135.479,2.276,2.276,0,0,0,.185.4c.062.114.139.21.189.287A1.9,1.9,0,0,0-180.829,101.69Z" transform="translate(187.907 -88.027)" fill="#c39368"/>
                <path id="Path_29981" data-name="Path 29981" d="M-181.56,101.043a2.087,2.087,0,0,1-.5-.414,1.61,1.61,0,0,1-.2-.265,1.835,1.835,0,0,1-.17-.337,1.331,1.331,0,0,1-.086-.4,1.485,1.485,0,0,1,.034-.407,1.279,1.279,0,0,1,.16-.337,1.015,1.015,0,0,1,.213-.263,1.85,1.85,0,0,1,.479-.312,1.22,1.22,0,0,1,.216-.083l.17-.043a1,1,0,0,1,.145-.04s-.04.046-.105.108c-.037.028-.083.067-.135.108a1.255,1.255,0,0,0-.16.139c-.062.053-.123.114-.191.173a1.9,1.9,0,0,0-.176.2.973.973,0,0,0-.167.238.914.914,0,0,0-.111.265,1.524,1.524,0,0,0,.238,1.144c.09.151.176.29.238.386A.549.549,0,0,0-181.56,101.043Z" transform="translate(186.516 -87.427)" fill="#c39368"/>
                <path id="Path_29982" data-name="Path 29982" d="M-182.056,100.79a1.668,1.668,0,0,1-.5-.294,2.2,2.2,0,0,1-.21-.207,1.777,1.777,0,0,1-.2-.29,1.19,1.19,0,0,1-.13-.364,1.211,1.211,0,0,1-.009-.38.982.982,0,0,1,.111-.337.759.759,0,0,1,.17-.257,1.718,1.718,0,0,1,.389-.337,2.958,2.958,0,0,1,.331-.151.883.883,0,0,1,.127-.046l-.08.111c-.062.062-.135.154-.232.265a1.423,1.423,0,0,1-.145.179c-.053.067-.083.135-.135.207a1.321,1.321,0,0,0-.121.238.882.882,0,0,0-.067.247,1.332,1.332,0,0,0,.324.982,4.321,4.321,0,0,0,.372.433Z" transform="translate(185.29 -87.454)" fill="#c39368"/>
              </g>
              <g id="Group_12878" data-name="Group 12878" transform="translate(7.414 0)">
                <path id="Path_29983" data-name="Path 29983" d="M-165.7,80.165s-4.289,21.476-3.955,23.973c.3,2.183,2.989,5.184,2.362,16.629s-.479,22.858-.479,22.858l-5.611-.943s-6.033-36.439-7.127-43.942.114-24.665.074-25.545S-165.7,80.165-165.7,80.165Z" transform="translate(182.354 -73.058)" fill="#e26538"/>
                <path id="Path_29984" data-name="Path 29984" d="M-164.766,80.213s-4.289,21.476-3.955,23.973c.3,2.183,2.989,5.184,2.362,16.629s-.241,21.432-.241,21.432l-6.682-1.238S-180,105.747-181.09,98.244s.923-24.189.883-25.069S-164.766,80.213-164.766,80.213Z" transform="translate(181.415 -73.107)" fill="#e26538"/>
                <path id="Path_29985" data-name="Path 29985" d="M-180.261,83.109c.578.139,1.121.389,1.7.535.195.043,1.062.318,1.241.151.074-.067.182.158.185.2.046.37-.506.414-.765.407a3.194,3.194,0,0,1-2.306-.778C-180.283,83.547-180.564,83.037-180.261,83.109Z" transform="translate(183.538 -52.245)" fill="#e26538" style="mix-blend-mode: multiply;isolation: isolate"/>
              </g>
            </g>
            <path id="Path_29986" data-name="Path 29986" d="M-174.667,83.109c.574.139,1.121.389,1.7.535.195.043,1.062.318,1.241.151.074-.067.182.158.185.2.046.37-.506.414-.769.407a3.191,3.191,0,0,1-2.3-.778C-174.69,83.547-174.968,83.037-174.667,83.109Z" transform="translate(223.791 60.699)" fill="#f4d9bf" style="mix-blend-mode: multiply;isolation: isolate"/>
            <path id="Path_29987" data-name="Path 29987" d="M-177.094,69.955a10.089,10.089,0,0,1,.191,1.065,13.938,13.938,0,0,0,.481,2.1l.049-.067C-175.64,71.952-176.337,70.819-177.094,69.955Z" transform="translate(219.01 33.251)" fill="#f4d9bf" style="mix-blend-mode: multiply;isolation: isolate"/>
            <g id="Group_12881" data-name="Group 12881" transform="translate(34.564 181.326)">
              <path id="Path_29988" data-name="Path 29988" d="M-177.592,98.6s-.151.071-.358.179a1.514,1.514,0,0,0-.611.482.683.683,0,0,0-.1.37,2.063,2.063,0,0,0,.067.417c.031.135.077.244.1.325a.674.674,0,0,1,.043.135,1.326,1.326,0,0,1-.1-.1,1.355,1.355,0,0,1-.226-.29,1.212,1.212,0,0,1-.21-.51.815.815,0,0,1,0-.325.911.911,0,0,1,.111-.3,1.025,1.025,0,0,1,.849-.442A1.391,1.391,0,0,1-177.592,98.6Z" transform="translate(180.443 -88.377)" fill="#c39368"/>
              <path id="Path_29989" data-name="Path 29989" d="M-161.709,95.783c2.02-.135,4.029-.374,6.049-.528.247.556.689,1.362,1.526,2.98,1.939,3.748.5,6.305-.837,6.328s-2.433.364-5.512,2.2c-3.19,1.893-4.309,1.952-7.376,1.575-1.507,1.43-2.637,1.232-4.045.448a1.743,1.743,0,0,1-2.3-.337,3.012,3.012,0,0,1-1.878-.4,1.219,1.219,0,0,1-.987.035,1.219,1.219,0,0,1-.689-.708,1.11,1.11,0,0,1-.894.087,1.109,1.109,0,0,1-.665-.6,1.144,1.144,0,0,1,.318-1.532c.067-.13.135-.257.222-.411.732-1.207,3.178-.911,4.32-.689C-168.727,102.045-162.2,97.917-161.709,95.783Z" transform="translate(179.485 -95.255)" fill="#f4d9bf"/>
              <g id="Group_12880" data-name="Group 12880" transform="translate(0.05 7.127)" style="mix-blend-mode: multiply;isolation: isolate">
                <path id="Path_29990" data-name="Path 29990" d="M-178.219,101.331c-.037,1.1,1.2,1.587,1.294.238.256,1.306,1.661,1.609,1.952.512.368,1.633,2.439,1.853,2.3.506,1.785,2.455,3.579.16,4.6.25a13.055,13.055,0,0,0,9.387-3.273,5.727,5.727,0,0,1,.769-.281c1.2-.324,2.569.053,3.678-.633a2.519,2.519,0,0,0,.967-1.087c-.2,1.365-.982,2.168-1.729,2.18-1.334.025-2.433.364-5.512,2.2-3.19,1.893-4.309,1.952-7.376,1.575a3.18,3.18,0,0,1-2.149,1.053,3.294,3.294,0,0,1-1.9-.621,1.718,1.718,0,0,1-2.294-.324,2.609,2.609,0,0,1-1.874-.444c-.775.516-1.328-.1-1.742-.673-.967.627-1.726-.417-1.6-1.337C-179.535,101.861-178.775,102.4-178.219,101.331Z" transform="translate(179.46 -97.564)" fill="#f4d9bf"/>
              </g>
              <path id="Path_29991" data-name="Path 29991" d="M-177.069,101.658a2.207,2.207,0,0,1-.5-.506,1.953,1.953,0,0,1-.191-.309,1.728,1.728,0,0,1-.151-.389,1.4,1.4,0,0,1-.053-.457,1.471,1.471,0,0,1,.083-.436,1.418,1.418,0,0,1,.21-.358,1.126,1.126,0,0,1,.265-.263,2.142,2.142,0,0,1,.556-.29.988.988,0,0,1,.241-.062c.077-.012.139-.028.191-.04.1-.012.161-.015.161-.015s-.04.034-.13.1c-.043.028-.093.067-.151.105a2.089,2.089,0,0,0-.191.139c-.074.059-.145.117-.222.17a1.412,1.412,0,0,0-.222.21.9.9,0,0,0-.2.238.951.951,0,0,0-.151.281,1.655,1.655,0,0,0,.135,1.269,3.659,3.659,0,0,0,.228.448Z" transform="translate(182.619 -88.411)" fill="#c39368"/>
              <path id="Path_29992" data-name="Path 29992" d="M-177.592,101.351a1.713,1.713,0,0,1-.51-.374,1.306,1.306,0,0,1-.21-.25,1.352,1.352,0,0,1-.185-.337,1.3,1.3,0,0,1-.1-.411,1.293,1.293,0,0,1,.028-.423,1.329,1.329,0,0,1,.154-.349,1.026,1.026,0,0,1,.213-.263,2.039,2.039,0,0,1,.471-.337c.145-.067.284-.093.377-.13.093-.022.145-.037.145-.037s-.037.043-.108.117-.164.154-.278.265a2.305,2.305,0,0,1-.173.182,2.474,2.474,0,0,0-.173.213,1.033,1.033,0,0,0-.154.241.824.824,0,0,0-.1.265,1.47,1.47,0,0,0,.253,1.109,3.635,3.635,0,0,0,.355.516Z" transform="translate(181.286 -88.602)" fill="#c39368"/>
              <path id="Path_29993" data-name="Path 29993" d="M-173.952,98.863s-3.353-.185-3.211,1.041.735,1.359.735,1.359a1.981,1.981,0,0,1-.179-1.559C-176.252,99.048-173.952,98.863-173.952,98.863Z" transform="translate(184.293 -87.744)" fill="#c39368"/>
            </g>
            <path id="Path_29994" data-name="Path 29994" d="M-157.421,72.625A7.145,7.145,0,0,1-157.245,76c-1.822,7.392-7.742,27.636-7.466,29.689.294,2.183,2.989,5.187,2.362,16.634s-.09,22.025-.09,22.025l-6-.114s-6.033-36.435-7.129-43.938c-1.081-7.506-.51-24.89.077-25.545C-172.322,71.22-157.421,72.625-157.421,72.625Z" transform="translate(220.926 38.248)" fill="#f4d9bf"/>
            <path id="Path_29995" data-name="Path 29995" d="M-157.421,72.625A7.145,7.145,0,0,1-157.245,76c-1.822,7.392-5.268,26.659-5.52,29.554-.195,2.192,1.047,5.318.417,16.763s-.127,21.173-.127,21.173l-6.027.346s-5.969-36.043-7.065-43.547c-1.081-7.506-.51-24.89.077-25.545C-172.322,71.22-157.421,72.625-157.421,72.625Z" transform="translate(220.926 38.249)" fill="#e26538"/>
            <path id="Path_29996" data-name="Path 29996" d="M-175.443,83.2c.574.139,1.121.389,1.7.534.2.043,1.062.318,1.241.154.074-.067.182.154.185.2.046.374-.51.414-.765.407a3.194,3.194,0,0,1-2.306-.778C-175.468,83.629-175.745,83.122-175.443,83.2Z" transform="translate(222.169 60.873)" fill="#f4d9bf" style="mix-blend-mode: multiply;isolation: isolate"/>
            <path id="Path_29997" data-name="Path 29997" d="M-172.436,97.1c.471-.151.979-.21,1.46-.362.161-.053.9-.235.948-.436.022-.086.2.034.228.067.213.256-.158.531-.343.642a2.626,2.626,0,0,1-2,.448C-172.239,97.435-172.683,97.186-172.436,97.1Z" transform="translate(228.586 88.197)" fill="#f4d9bf" style="mix-blend-mode: multiply;isolation: isolate"/>
            <path id="Path_29998" data-name="Path 29998" d="M-179.972,76.244a95.59,95.59,0,0,0-1.241,18.829s7.79,3.443,13.993,3.029l1.47-6.333.4,6.163s8.788,2.76,15.34.281c0,0,5.154-18.959,4.15-22.794s-2.334-5.2-2.334-5.2Z" transform="translate(210.191 33.808)" fill="#e26538"/>
            <path id="Path_29999" data-name="Path 29999" d="M-179.849,81.686a51.667,51.667,0,0,1,1.723-9.612l-1.6.3s-2.109,11.74-1.637,20.945c0,0,.611-2.035,1-1.9C-180.43,88.173-180.109,84.934-179.849,81.686Z" transform="translate(209.948 37.675)" fill="#415d7e" style="mix-blend-mode: screen;isolation: isolate"/>
            <path id="Path_30000" data-name="Path 30000" d="M-170.556,77.38a27.176,27.176,0,0,0,2.937-1.8c-2.365.716-4.65,1.658-6.972,2.5a4.552,4.552,0,0,1,.444.188.353.353,0,0,1,.164.4,63.432,63.432,0,0,0-1.279,8.324c.182.012.364.025.559.034.135-.769.275-1.541.475-2.289.448-1.7.825-3.458,1.386-5.116A4.366,4.366,0,0,1-170.556,77.38Z" transform="translate(222.825 44.995)" fill="#415d7e" style="mix-blend-mode: screen;isolation: isolate"/>
            <path id="Path_30001" data-name="Path 30001" d="M-146.656,75.419c-1-3.837-2.334-5.2-2.334-5.2l-31.776,6.021s-.067.358-.164,1a13.638,13.638,0,0,0,4.727,1.609,44.887,44.887,0,0,0,8.942.982,34.147,34.147,0,0,0,8.9-.943,31.407,31.407,0,0,0,3.727-1.133c1.121-.444,2.112-1.155,3.264-1.5a.358.358,0,0,1,.307.062.358.358,0,0,1,.14.28,32.359,32.359,0,0,1-.71,6.4c-.436,2.4-.713,4.82-1.084,7.232a18.863,18.863,0,0,1-2.9,7.871c2.05-.2,2.76,1.8,4.539,1.124C-151.078,99.223-145.653,79.254-146.656,75.419Z" transform="translate(210.989 33.809)" fill="#d36716"/>
            <g id="Group_12885" data-name="Group 12885" transform="translate(0 61.453)">
              <g id="Group_12882" data-name="Group 12882" transform="translate(17.684 0)">
                <path id="Path_30002" data-name="Path 30002" d="M-174.71,56.73s-4.974,2.921-8.161,17.615c-3.236,14.926-2.813,26.4,2.217,21.031s9.138-27.2,9.138-27.2a6.954,6.954,0,0,0,2.507-6.45C-169.564,57.443-173.364,55.677-174.71,56.73Z" transform="translate(184.942 -56.433)" fill="#f4d9bf"/>
              </g>
              <g id="Group_12883" data-name="Group 12883" transform="translate(22.309 0)" style="mix-blend-mode: multiply;isolation: isolate">
                <path id="Path_30003" data-name="Path 30003" d="M-172.115,61.722c-.556-4.28-4.357-6.046-5.7-4.993a7.889,7.889,0,0,0-1.383.735,25.648,25.648,0,0,0-2.222,5.209,41.339,41.339,0,0,0-1.952,11.183,73.111,73.111,0,0,0,1.658,18.4c4.051-7.935,7.1-24.088,7.1-24.088a6.954,6.954,0,0,0,2.506-6.45Z" transform="translate(183.425 -56.433)" fill="#f4d9bf"/>
              </g>
              <g id="Group_12884" data-name="Group 12884" transform="translate(6.174 28.145)">
                <path id="Path_30004" data-name="Path 30004" d="M-171.4,74.271c-.485,1.964-12.9,21.707-15.365,20.759s-2.626-1.353.009-6.261c2.606-4.857,8.3-17.063,9.772-22.553.553-2.063,3.208,1.127,3.752,2.931C-172.718,70.837-170.984,72.625-171.4,74.271Z" transform="translate(188.67 -65.545)" fill="#f4d9bf"/>
              </g>
              <path id="Path_30005" data-name="Path 30005" d="M-177.976,77.241a5.079,5.079,0,0,0-.386-2.4c-1.331-1.921-4.141-2.168-6.059-1.288-1.111.51-2.7,2.2-3.847,2.594a7.008,7.008,0,0,1-1.643.5.682.682,0,0,0-.327.086c-.967.624,0,1.476.757,1.664a2.9,2.9,0,0,0,2.17-.454,6.1,6.1,0,0,0-1.5,1.138,12.221,12.221,0,0,0-1.352,2.683,4.309,4.309,0,0,0-.5,1.818c.083,1,1.072.79,1.507.114.549-.84,1.016-1.707,1.624-2.52a6.328,6.328,0,0,1,1.6-1.427,8.182,8.182,0,0,0-1.189,1.72,8.085,8.085,0,0,0-.741,2.18c-.077.436-.407,1.294-.142,1.742.451.751.818.547,1.272-.028a7.262,7.262,0,0,0,1.016-2.3,6.689,6.689,0,0,1,1.346-2.285,8.757,8.757,0,0,0-.818,1.781c-.349,1.1-.627,2.834.025,3.887.259.417.794-.278.889-.463.63-1.229.695-2.594,1.269-3.816a10.143,10.143,0,0,0-.306,1.967c-.037.7-.207,2.222.673,2.47.358.108.744-.66.849-.875a5.058,5.058,0,0,0,.358-1.6c.043-.352-.062-2.183.284-2.343a8.683,8.683,0,0,0,2.094-1.948,3.828,3.828,0,0,0,1.073-2.6Z" transform="translate(190.663 -21.71)" fill="#f4d9bf"/>
              <path id="Path_30006" data-name="Path 30006" d="M-181.734,74.312c-1.534,1.464-3.155.5-4.91.2-1.217-.21-1.979.713-3.1,1.077-.019.006-.037.049-.009.043a5.572,5.572,0,0,0,1.414-.58c1.285-.7,2.838.265,4.147.448a2.962,2.962,0,0,0,2.566-1.109C-181.552,74.3-181.657,74.238-181.734,74.312Z" transform="translate(192.547 -19.171)" fill="#f4d9bf" style="mix-blend-mode: multiply;isolation: isolate"/>
            </g>
            <path id="Path_30007" data-name="Path 30007" d="M-154.03,66.572a18.2,18.2,0,0,0-2.98-3.8,15.187,15.187,0,0,0-7.534-1.556c-1.683.228-1.88-8.5-1.88-8.5l-7.435,4.366a15.007,15.007,0,0,1,.093,3.863.348.348,0,0,1-.152.355h-.006a.4.4,0,0,1-.077.083,1.547,1.547,0,0,1-.244.114,38.617,38.617,0,0,1-6.518,3.044c-2.933,7.522.639,28.343,1.26,31.237,2.35,11.014.584,18.036.475,17.588,2.637,1.1,8.374,2.491,11.4,2.267,8-.584,15.531-2.418,21.352-7.883C-148.528,106.79-156.486,62.148-154.03,66.572Z" transform="translate(208.974 -2.759)" fill="#f4d9bf"/>
            <path id="Path_30008" data-name="Path 30008" d="M-155.419,72.088c-2.032-1.627-2.782-4.4-2.986-6.907a27.161,27.161,0,0,1,1.022-9c-1.035-.253-2.075-.463-3.007-.617A17.847,17.847,0,0,0-161.5,58.2a22.433,22.433,0,0,1-1.9,4.6,8.986,8.986,0,0,1-5.956,4.3c-2.4.368-5.592.135-7.293-1.874-1.908-2.251-1.569-4.937-.911-7.577-.778.337-1.553.652-2.263.938-.29,1.3-.722,2.566-1,3.875-.4,1.818-.176,4.412-.574,6.222-.432,1.942-.195,4.15-.938,5.971.411,6.676,1.481,5.675,4.008,16.418s.244,16.34.244,16.34c2.637,1.1,8.374,2.491,11.4,2.267,8-.584,15.531-2.418,21.352-7.883-1.476,2.968-2.35-26.357-2.455-26.694A16.4,16.4,0,0,1-155.419,72.088Z" transform="translate(208.043 3.196)" fill="#f4d9bf" style="mix-blend-mode: multiply;isolation: isolate"/>
            <path id="Path_30009" data-name="Path 30009" d="M-157.022,71.244c-2.727-2.615-1.841-14.781-1.279-15.337-.222-.062-.9-.269-1.115-.324-1.794,1.89-2.436,4.626-3.748,7.176a9.127,9.127,0,0,1-8.457,4.928c-2.683-.127-5.7-1.105-6.6-3.934a9.394,9.394,0,0,1,.327-6.015q-.625.26-1.226.506a27.191,27.191,0,0,0-1.481,7.491c-.2,2.381-.586,7.457-1.744,8.865-.062,5.709,2.289,8.186,3.776,15.17s.475,17.588.475,17.588c2.637,1.1,8.374,2.491,11.4,2.267,8-.584,15.531-2.418,21.352-7.883-2.26-6.438-2.266-26.064-2.331-26.286C-150.905,76.324-154.808,73.367-157.022,71.244Z" transform="translate(208.043 3.247)" fill="#dae1e1"/>
            <path id="Path_30010" data-name="Path 30010" d="M-180.778,63.754a7.386,7.386,0,0,1-.337-1.973,9.5,9.5,0,0,0,.6,3.823c1.442,3.665,5.588,4.974,9.2,3.748,5.592-1.9,8.182-8.133,9.474-13.734l-.121-.034c-1.794,1.89-2.436,4.626-3.748,7.176a9.127,9.127,0,0,1-8.457,4.928C-176.857,67.561-179.877,66.582-180.778,63.754Z" transform="translate(210.596 3.246)" fill="#d6d6d6" style="mix-blend-mode: multiply;isolation: isolate"/>
            <path id="Path_30011" data-name="Path 30011" d="M-150.545,75.243c-3.231.868-7.136-2.087-9.35-4.212-2.727-2.615-1.841-14.781-1.279-15.337l-.037-.009a22.519,22.519,0,0,0-1.05,11.777,11.686,11.686,0,0,0,3.335,6.589c1.47,1.309,1.683,2.154,3.215,3.326,1.439,1.1,1.822,3.359,2.05,5.03a40.57,40.57,0,0,1,.269,6.79c-.127,4.468,1.081,8.617-1.6,12.357a11.519,11.519,0,0,1-7.83,4.823c-12.376,1.229-16.5.759-17.878-10.125.689,4.484-.269,10.893-.269,10.893,2.637,1.1,8.374,2.491,11.4,2.267,8-.584,15.531-2.418,21.352-7.883C-150.6,92.794-150.48,75.465-150.545,75.243Z" transform="translate(210.916 3.459)" fill="#d6d6d6" style="mix-blend-mode: multiply;isolation: isolate"/>
            <path id="Path_30012" data-name="Path 30012" d="M-179.2,60.936a.375.375,0,0,1-.037.216,12.432,12.432,0,0,0,4.474-1.212,12.915,12.915,0,0,0,3.347-1.952,48.057,48.057,0,0,1-.442-5.28l-7.438,4.365A14.971,14.971,0,0,1-179.2,60.936Z" transform="translate(214.414 -2.758)" fill="#f4d9bf" style="mix-blend-mode: multiply;isolation: isolate"/>
            <g id="Group_12889" data-name="Group 12889" transform="translate(48.747 59.144)">
              <g id="Group_12886" data-name="Group 12886" transform="translate(10.775 23.421)">
                <path id="Path_30013" data-name="Path 30013" d="M-162.947,90.642A11.829,11.829,0,0,0-160,89.488c.164-.077.324-.151.488-.232-.375-3.548-.779-7.1-1.322-10.617-.6-3.837-1.353-7.639-2.294-11.387a9.062,9.062,0,0,0-3.11-3.48c-1.5-.932-3.359-.636-3.94,1.47-.179.642-1.226,2.013-1.217,2.671.827,1.7,5.333,13.293,6.716,17.547C-164.117,87.184-163.509,88.91-162.947,90.642Z" transform="translate(171.392 -63.269)" fill="#f4d9bf"/>
              </g>
              <g id="Group_12887" data-name="Group 12887" transform="translate(16.408 24.251)" style="mix-blend-mode: multiply;isolation: isolate">
                <path id="Path_30014" data-name="Path 30014" d="M-163.957,83.019c-.207-1.649-.426-3.295-.683-4.94-.6-3.837-1.352-7.639-2.294-11.388a9.353,9.353,0,0,0-2.634-3.153C-167.466,69.94-165.609,76.449-163.957,83.019Z" transform="translate(169.568 -63.539)" fill="#f4d9bf"/>
              </g>
              <path id="Path_30015" data-name="Path 30015" d="M-162.078,72.323a2.63,2.63,0,0,0-1.495-.862c-2.032-.337-3.946,2-4.527,4.008-.337,1.161-.411,2.535-.837,3.643a7.405,7.405,0,0,1-.661,1.544.692.692,0,0,0-.142.3c-.176,1.133.948,1.01,1.522.584.6-.436.673-1.812.843-2.575a12.573,12.573,0,0,0,0,2.55,13.318,13.318,0,0,0,.914,2.813,4.449,4.449,0,0,0,.868,1.6c.695.621,1.152-.247.979-1.025-.216-.975-.494-1.905-.652-2.906a7.183,7.183,0,0,1,.04-2.143,9.363,9.363,0,0,0,.4,2.041,8.532,8.532,0,0,0,.957,2.026c.235.352.59,1.179,1.034,1.291.751.182.84-.226.747-.951a7.94,7.94,0,0,0-.875-2.312,7.386,7.386,0,0,1-.661-2.541,9.55,9.55,0,0,0,.654,1.818c.494,1,1.448,2.387,2.513,2.626.423.093.3-.769.235-.967-.417-1.3-1.254-2.275-1.7-3.529a10.238,10.238,0,0,0,1.081,1.563c.43.51,1.433,2.455,2.118,1.983.284-.191.673-.71-.994-3.363a25.33,25.33,0,0,1-1.337-4.663,4.1,4.1,0,0,0-1.025-2.552Z" transform="translate(185.581 -22.817)" fill="#f4d9bf"/>
              <path id="Path_30016" data-name="Path 30016" d="M-156.394,80.976q-.894-3.307-1.989-6.561c-.673-1.544-1.423-3.231-2.251-5.086-.531-1.183-1.1-2.337-1.67-3.489a30.243,30.243,0,0,0-4.057-6.546,10.633,10.633,0,0,0-4.982-3.433,4.343,4.343,0,0,0-.925-.176c-3.5,1.285-2.933,5.984-1.481,10.264.086.158.176.321.259.475,1.692,3.066,8.961,16.121,9.383,17.325,2.952,5.434,7.519,9.924,8.942,7.108a7.9,7.9,0,0,0,.648-1.849Q-155.319,84.955-156.394,80.976Z" transform="translate(174.883 -55.685)" fill="#f4d9bf"/>
              <g id="Group_12888" data-name="Group 12888" transform="translate(1.184 0.003)" style="mix-blend-mode: multiply;isolation: isolate">
                <path id="Path_30017" data-name="Path 30017" d="M-170.595,57.6c2.686,2.269,4.517,5.866,6.12,9.134a97.917,97.917,0,0,1,4.95,12.422q1.909,5.78,3.568,11.675a7.591,7.591,0,0,0,.639-1.825q-.8-4.053-1.878-8.031-.894-3.307-1.989-6.561c-.673-1.544-1.423-3.231-2.251-5.086-.531-1.183-1.1-2.337-1.67-3.489a30.242,30.242,0,0,0-4.057-6.546,10.633,10.633,0,0,0-4.982-3.433,4.343,4.343,0,0,0-.923-.173,3.775,3.775,0,0,0-1.43.92A3.958,3.958,0,0,1-170.595,57.6Z" transform="translate(174.499 -55.69)" fill="#f4d9bf"/>
              </g>
            </g>
            <g id="Group_12893" data-name="Group 12893" transform="translate(7.413)">
              <path id="Path_30018" data-name="Path 30018" d="M-131.482,53.7c.182.1.423-.173.392-.355-1.186-7.485-8.593-12.543-15.269-14.945a35.447,35.447,0,0,0-12.36-1.652,24.169,24.169,0,0,0-6.173.948,23.343,23.343,0,0,0-3.116,1.136c-.093.043-.179.086-.266.127a7.315,7.315,0,0,0,.3-1c.053-.235.471-1.476-.121-1.423a.682.682,0,0,0-.457.318c-.294.438-.735.8-1.044,1.244a6.145,6.145,0,0,0-.932,2h-.012a3.837,3.837,0,0,0-1.284-.726,4.619,4.619,0,0,0-2.289-.627c-.09.019-.207.127-.182.228a3.129,3.129,0,0,0,.695,1.235,6.05,6.05,0,0,1,.423.572,17.053,17.053,0,0,0-4.974,2.347,27.349,27.349,0,0,0-6.691,5.924,13.379,13.379,0,0,0-3.415,7.713,15.018,15.018,0,0,0,2.327,8.391,3.314,3.314,0,0,0,1.516,1.594c1.522.71,3.977-1.535,5.123-2.232a41.021,41.021,0,0,1,14.624-5.74,37.806,37.806,0,0,1,8.559-.377,16.561,16.561,0,0,1,5.66,5.465c1.683,2.952,1.856,6.268,1.655,9.6-.185,3.038-.673,6.021-1.093,9.032-.09.623-.58,2.319.377,2.5a.3.3,0,0,0,.275-.09,7.944,7.944,0,0,0,8.291-1.572,8.8,8.8,0,0,0,1.241-1.627c-.037.648-.077,1.3-.067,1.952.009.444.6.818.951.43,1.692-1.874,2.289-5.058,2.52-7.5a20.624,20.624,0,0,0-.009-4,11.447,11.447,0,0,0,.6,1.2.557.557,0,0,0,.4.283.557.557,0,0,0,.467-.134c2.059-1.683,2.937-5.477,3.106-7.994a13.018,13.018,0,0,0-.728-5.617c.127.148.25.3.377.457.364.451.967-.006.9-.479a26.131,26.131,0,0,0-1.828-7.374C-132.5,53.169-131.979,53.42-131.482,53.7Z" transform="translate(188.263 -36.534)" fill="#866c5d"/>
              <path id="Path_30019" data-name="Path 30019" d="M-157.3,52.92c.182.1.423-.173.392-.355-1.186-7.485-8.593-12.543-15.269-14.945a23.368,23.368,0,0,0-2.424-.713c.253.123.506.25.757.389a18.97,18.97,0,0,1,9.223,10.878.355.355,0,0,1-.164.4.355.355,0,0,1-.426-.05,6.742,6.742,0,0,0-1.689-1.325,18.415,18.415,0,0,1,2.149,2.881,16.566,16.566,0,0,1,2.8,9.35c-.012.324-.506.519-.661.176a10.747,10.747,0,0,0-2.467-3.643,8.415,8.415,0,0,1,.37,6.747.356.356,0,0,1-.341.255.356.356,0,0,1-.341-.255c-.88-2.353-1.754-4.548-3.718-6.018,1.581,3.462,2.026,8.213-.383,11.221-.188.235-.5.059-.593-.154-.808-1.933-.907-4.169-1.893-6.021a12.9,12.9,0,0,0-3.643-4.471c.586,2.418,2.618,7.151.519,8.689a20.959,20.959,0,0,1,.5,6.732c-.185,3.038-.673,6.021-1.093,9.032-.09.623-.58,2.319.377,2.5a.3.3,0,0,0,.275-.09,7.944,7.944,0,0,0,8.291-1.572,8.805,8.805,0,0,0,1.241-1.627c-.037.648-.077,1.3-.067,1.952.009.444.6.818.951.43,1.692-1.874,2.289-5.058,2.52-7.5a20.626,20.626,0,0,0-.009-4,11.447,11.447,0,0,0,.6,1.2.557.557,0,0,0,.4.283.557.557,0,0,0,.467-.134c2.059-1.683,2.937-5.477,3.106-7.994a13.019,13.019,0,0,0-.728-5.617c.127.148.25.3.377.457.364.451.967-.006.9-.479a26.131,26.131,0,0,0-1.828-7.374C-158.311,52.386-157.79,52.639-157.3,52.92Z" transform="translate(214.076 -35.754)" fill="#866c5d" opacity="0.5" style="mix-blend-mode: multiply;isolation: isolate"/>
              <path id="Path_30020" data-name="Path 30020" d="M-184.029,43.233c-1.757,1.312-2.807,3.551-3.891,5.419a15.466,15.466,0,0,0,1.226,2.446,21.126,21.126,0,0,1,.96-3.415,40.7,40.7,0,0,1,1.7-4.449Z" transform="translate(188.995 -22.537)" fill="#91600a" style="mix-blend-mode: multiply;isolation: isolate"/>
              <path id="Path_30021" data-name="Path 30021" d="M-183.649,44.294a27.362,27.362,0,0,1-2.779,6.1,11.823,11.823,0,0,0,2.211-1.334,7.876,7.876,0,0,1,.235-3.026C-183.859,45.455-183.751,44.874-183.649,44.294Z" transform="translate(192.11 -20.322)" fill="#91600a" style="mix-blend-mode: multiply;isolation: isolate"/>
              <path id="Path_30022" data-name="Path 30022" d="M-184.461,47.167q.57-.3,1.148-.59a9.335,9.335,0,0,1-.176-2.491A18.971,18.971,0,0,1-184.461,47.167Z" transform="translate(196.217 -20.759)" fill="#91600a" style="mix-blend-mode: multiply;isolation: isolate"/>
              <g id="Group_12890" data-name="Group 12890" transform="translate(5.36 36.889)">
                <path id="Path_30023" data-name="Path 30023" d="M-184.855,48.729c-1.732,1.247-2.841,4.344.374,7.405.982.936,4,1.948,4.931-.818l-1.212-4.048S-183.119,47.483-184.855,48.729Z" transform="translate(186.533 -48.477)" fill="#efcaa6"/>
                <path id="Path_30024" data-name="Path 30024" d="M-183.832,49.424a3.055,3.055,0,0,0-2.115.7c-.055.037,0,.123.059.1a4.59,4.59,0,0,1,1.738-.318,1.987,1.987,0,0,1,1.553,1.031.075.075,0,0,0,.087.024.075.075,0,0,0,.048-.076,1.567,1.567,0,0,0-1.369-1.461Z" transform="translate(187.708 -46.59)" fill="#c39368"/>
              </g>
              <path id="Path_30025" data-name="Path 30025" d="M-176.376,45.151c-.235-.17-.471-.337-.716-.5-.278-.454-.556-.9-.843-1.353C-177.419,43.919-176.907,44.545-176.376,45.151Z" transform="translate(209.841 -22.402)" fill="#ae9f00" opacity="0.5" style="mix-blend-mode: multiply;isolation: isolate"/>
              <path id="Path_30026" data-name="Path 30026" d="M-145.676,54.138c0-.006-3.231-12.975-22.025-11.214-10.1.948-15.609,2.362-18.548,3.468-1.05,3.616-1.241,7.473.886,10.807,1.763,2.76,4.7,5.323,4.412,8.905-.173,2.139-.808,4.376.2,6.419a9.964,9.964,0,0,0,4.045,4.026c1.485.914,3.752,1.325,5.422,1.806a29.73,29.73,0,0,0,5.191,1.068,18.729,18.729,0,0,0,9.331-1.417c5.407-2.306,10.961-6.876,12.082-12.926C-144,61.468-144.8,57.645-145.676,54.138Z" transform="translate(190.891 -23.528)" fill="#f4d9bf"/>
              <path id="Path_30027" data-name="Path 30027" d="M-160.272,54.135s-2.97-11.909-19.749-11.357l.1.046a41.011,41.011,0,0,1,5.987,3.523,25.674,25.674,0,0,1,8.39,9.779c1.714,3.635,3.394,8.38,1.893,12.363a12.081,12.081,0,0,1-4.064,5.157,29.808,29.808,0,0,1-6.707,3.992,32.724,32.724,0,0,1-5.243,1.856A18.724,18.724,0,0,0-171.353,78c5.407-2.306,10.961-6.876,12.082-12.926C-158.6,61.465-159.4,57.643-160.272,54.135Z" transform="translate(205.486 -23.525)" fill="#f4d9bf" style="mix-blend-mode: multiply;isolation: isolate"/>
              <path id="Path_30028" data-name="Path 30028" d="M-179.4,53.7a3.292,3.292,0,0,0,.621-1.689c-1.081.519-2.078,1.2-3.164,1.711A1.858,1.858,0,0,0-179.4,53.7Z" transform="translate(201.479 -4.22)" fill="#f4d9bf" style="mix-blend-mode: multiply;isolation: isolate"/>
              <path id="Path_30029" data-name="Path 30029" d="M-179.553,51.325c.932-.17,1.856-.43,2.8-.531a25.2,25.2,0,0,1,2.686-.108C-175.943,49.97-178.083,49.874-179.553,51.325Z" transform="translate(206.463 -8.033)" fill="#f4d9bf" style="mix-blend-mode: multiply;isolation: isolate"/>
              <path id="Path_30030" data-name="Path 30030" d="M-184.336,51.138c1.8-.022,3.588.222,5.386.185A4.9,4.9,0,0,0-184.336,51.138Z" transform="translate(196.478 -7.522)" fill="#f4d9bf" style="mix-blend-mode: multiply;isolation: isolate"/>
              <path id="Path_30031" data-name="Path 30031" d="M-178.564,51.808c.034.63,1.285,1.072,2.791.988s2.693-.661,2.662-1.291-1.285-1.077-2.791-.988S-178.6,51.175-178.564,51.808Z" transform="translate(208.525 -7.352)" fill="#f9cbc0"/>
              <path id="Path_30032" data-name="Path 30032" d="M-184.861,52.035c.031.568.982.982,2.125.917s2.038-.574,2.007-1.144-.982-.985-2.121-.92S-184.892,51.463-184.861,52.035Z" transform="translate(195.379 -6.575)" fill="#f9cbc0"/>
              <path id="Path_30033" data-name="Path 30033" d="M-185.817,61.23a.209.209,0,0,0,.176.07.209.209,0,0,0,.16-.1.12.12,0,0,0,.111-.009,2.047,2.047,0,0,0,.623-.565c.025.5.022,1.377.479,1.581a.387.387,0,0,0,.417.037c1.885-.948,2.992-3.511,3.52-5.842a5.671,5.671,0,0,0,.281,1.279.365.365,0,0,0,.337.278,2.815,2.815,0,0,0,2.106-1.51,12.456,12.456,0,0,0,.358,2.773.189.189,0,0,0,.173.138.189.189,0,0,0,.185-.122,4.632,4.632,0,0,0,2.875-1.952,7.129,7.129,0,0,0,1.356-2.52,8.053,8.053,0,0,0,1.51,2.436.354.354,0,0,0,.292.108.354.354,0,0,0,.264-.164,3.9,3.9,0,0,0,.059-2.828,8.3,8.3,0,0,0,4.8,2.751.322.322,0,0,0,.252-.118.322.322,0,0,0,.065-.271,2.76,2.76,0,0,0-.673-1.38c1.01.808,2.078,1.559,3.088,2.294,1.056.772,2.238,1.633,3.606,1.39a.344.344,0,0,0,.256-.407,4.45,4.45,0,0,0-.979-1.917,5.846,5.846,0,0,0,3,1.683.345.345,0,0,0,.352-.337,4.072,4.072,0,0,0-.17-1.037,5.335,5.335,0,0,0,2.038,1.757c.991.364,1.439-.543,1.365-1.405-.016-.161-.04-.321-.067-.479.053.083.105.161.151.235.617.963,1.39,2.411,2.491,2.9,1.155.522,1.284-.994,1.084-1.766.043.028.083.062.127.093a8.636,8.636,0,0,0,2.106,1.109,12.6,12.6,0,0,0,.683,3.77c.377.911,1.031,1.476,2.02,1.059a2.141,2.141,0,0,0,1.062-1.269c3-2.622,2.863-6.991,1.365-10.44a16.131,16.131,0,0,0-8.847-8.685,39.094,39.094,0,0,0-17.6-2.458,26.65,26.65,0,0,0-8.491,1.794,27.07,27.07,0,0,0-6.2,3.27.293.293,0,0,0-.16-.053c-2.575-.062-3.708,4.5-3.98,6.438C-188.2,55.709-188.009,59.087-185.817,61.23Z" transform="translate(188.896 -26.633)" fill="#866c5d"/>
              <path id="Path_30034" data-name="Path 30034" d="M-142.678,48.12a9.068,9.068,0,0,1-1.627,6.568c-.188.235-.5.059-.593-.154-.808-1.933-.908-4.169-1.893-6.021a12.9,12.9,0,0,0-3.643-4.471c.633,2.606,2.949,7.9-.037,8.992-3.529,1.285-5.345-3.427-7.006-6.308.432,1.609.969,3.61-.093,4.391-1.115.818-2.937-1.822-3.986-3.221.167,1.485.753,3.568-1.2,3.4a8.472,8.472,0,0,1-3.986-1.985c-1.454-1.144-2.1-2.541-3.073-3.94a28.846,28.846,0,0,1,.471,3.31.359.359,0,0,1-.179.306.359.359,0,0,1-.355,0c-1.445-1.022-1.979-2.483-2.779-3.891A10.405,10.405,0,0,1-173,49.309c-.281.753-1.383,1.352-2.078.732-1-.886-1.148-2.529-1.084-4.178-.667,2.7-1.526,5.493-4.245,6.261a.366.366,0,0,1-.438-.247,6.674,6.674,0,0,1,.083-3.635c.124-.574.232-1.155.337-1.736a26.425,26.425,0,0,1-2.955,6.37c-.685.988-2.217,2.328-3.007.646-.778-1.646.244-4.274.763-5.842a40.715,40.715,0,0,1,1.7-4.449c-1.732,1.291-2.776,3.483-3.841,5.333-.009.059-.022.123-.028.179-.4,2.869-.21,6.247,1.983,8.39a.209.209,0,0,0,.176.07.209.209,0,0,0,.16-.1.12.12,0,0,0,.111-.009,2.048,2.048,0,0,0,.623-.565c.025.5.022,1.377.479,1.581a.387.387,0,0,0,.417.037c1.885-.948,2.992-3.511,3.52-5.842a5.673,5.673,0,0,0,.281,1.279.365.365,0,0,0,.337.278,2.815,2.815,0,0,0,2.106-1.51,12.456,12.456,0,0,0,.358,2.773.189.189,0,0,0,.173.138.188.188,0,0,0,.185-.122A4.632,4.632,0,0,0-174,53.185a7.129,7.129,0,0,0,1.356-2.52,8.054,8.054,0,0,0,1.51,2.436.354.354,0,0,0,.292.108.354.354,0,0,0,.264-.164,3.9,3.9,0,0,0,.059-2.828,8.3,8.3,0,0,0,4.8,2.751.322.322,0,0,0,.252-.118.322.322,0,0,0,.065-.271,2.76,2.76,0,0,0-.673-1.38c1.01.808,2.078,1.559,3.088,2.294,1.056.772,2.238,1.633,3.606,1.39a.344.344,0,0,0,.257-.407,4.45,4.45,0,0,0-.979-1.917,5.846,5.846,0,0,0,3,1.683.345.345,0,0,0,.352-.337,4.074,4.074,0,0,0-.17-1.037,5.334,5.334,0,0,0,2.038,1.757c.991.364,1.439-.543,1.365-1.405-.016-.161-.04-.321-.067-.479.053.083.105.161.151.235.617.963,1.39,2.411,2.491,2.9,1.155.522,1.284-.994,1.084-1.766.043.028.083.062.127.093a8.636,8.636,0,0,0,2.106,1.109,12.6,12.6,0,0,0,.683,3.77c.377.911,1.031,1.476,2.02,1.059a2.142,2.142,0,0,0,1.062-1.269c3-2.622,2.863-6.991,1.365-10.44A2.184,2.184,0,0,1-142.678,48.12Z" transform="translate(188.893 -22.536)" fill="#866c5d" opacity="0.5" style="mix-blend-mode: multiply;isolation: isolate"/>
              <g id="Group_12891" data-name="Group 12891" transform="translate(26.261 38.586)">
                <path id="Path_30035" data-name="Path 30035" d="M-179.424,51.319c.471,1.05,1.266,1.742,1.775,1.544s.534-1.207.059-2.257-1.269-1.742-1.773-1.548S-179.9,50.27-179.424,51.319Z" transform="translate(179.761 -49.025)" fill="#3d1a0b"/>
                <path id="Path_30036" data-name="Path 30036" d="M-179.332,49.852c.17.306.429.494.578.426s.127-.38-.043-.685-.429-.494-.578-.423S-179.5,49.546-179.332,49.852Z" transform="translate(180.361 -48.762)" fill="#fff"/>
              </g>
              <g id="Group_12892" data-name="Group 12892" transform="translate(12.085 39.619)">
                <path id="Path_30037" data-name="Path 30037" d="M-184.075,51.447c.386.957,1.025,1.59,1.43,1.414s.423-1.1.034-2.053-1.025-1.594-1.43-1.417S-184.461,50.487-184.075,51.447Z" transform="translate(184.355 -49.361)" fill="#3d1a0b"/>
                <path id="Path_30038" data-name="Path 30038" d="M-184.009,50.112c.139.278.346.454.467.389s.1-.337-.04-.621-.346-.454-.467-.389S-184.147,49.834-184.009,50.112Z" transform="translate(184.834 -49.119)" fill="#fff"/>
              </g>
              <path id="Path_30039" data-name="Path 30039" d="M-166.643,49.162a2.635,2.635,0,0,0-2.4-1.627,4.384,4.384,0,0,0-2.863,1.643,12.827,12.827,0,0,0-.713,1.1l-.015.015c-.936,1.532-2.909,5.749.037,6.45.951.228,2.057-.722,2.745-1.241a9.524,9.524,0,0,0,2.693-3.347A4.558,4.558,0,0,0-166.643,49.162Z" transform="translate(217.755 -13.568)" fill="#f4d9bf"/>
              <path id="Path_30040" data-name="Path 30040" d="M-170.115,48.324c-2.461.9-3.891,3.955-3.854,6.561a2.034,2.034,0,0,0,1.01.534c.951.228,2.057-.722,2.745-1.241a9.524,9.524,0,0,0,2.693-3.347c.083-.164.154-.337.222-.5C-167.657,48.9-168.513,47.737-170.115,48.324Z" transform="translate(218.121 -12.239)" fill="#f4d9bf" style="mix-blend-mode: multiply;isolation: isolate"/>
              <path id="Path_30041" data-name="Path 30041" d="M-170.029,48.223c-.606-.3-1.5.43-1.933.759A4.342,4.342,0,0,0-173.4,53.46c.028.083.154-.053.145-.108a5.772,5.772,0,0,1-.019-1.306.793.793,0,0,0,.247.17,1.159,1.159,0,0,0,1.105-.256,3.91,3.91,0,0,0,.821-.79,1.311,1.311,0,0,0,.392-.726c0-.067-.1.012-.105.053-.046.392-.72.911-1.01,1.118a1.334,1.334,0,0,1-.87.312,1.123,1.123,0,0,1-.512-.331,4.472,4.472,0,0,1,.808-1.865c.726-.969,2.832-2.041,2.853-.077,0,.062.093-.012.1-.053C-169.369,48.952-169.381,48.535-170.029,48.223Z" transform="translate(218.9 -12.265)" fill="#f4d9bf" style="mix-blend-mode: multiply;isolation: isolate"/>
              <path id="Path_30042" data-name="Path 30042" d="M-167.3,54.65c-1.294-1.548-3.406-2.078-5.329-2.251a3.77,3.77,0,0,0,.831-.3c.059-.034.182-.207.062-.244a5.655,5.655,0,0,0-2.6.195,3.629,3.629,0,0,0-1.111.423,2.268,2.268,0,0,0,.51-.377c.043-.046.1-.222-.025-.2a8.1,8.1,0,0,0-2.374.784,12.2,12.2,0,0,0-1.334.8,11.166,11.166,0,0,0-.96.578,6.068,6.068,0,0,0-2.7,1.594c-.046.049-.086.191.025.185a3.1,3.1,0,0,0,.831-.222,2.856,2.856,0,0,0-.46.639,2.466,2.466,0,0,0-.471,1.513c.012.053.049.067.1.053a.879.879,0,0,0,.448-.4l-.015.056a1.449,1.449,0,0,0,.08.679c.176.623.93,1.908,1.637,2.057.086.019.16-.071.188-.139l.025-.071a6.98,6.98,0,0,0,1.155-2.254,12.671,12.671,0,0,0,.565-1.662,5.128,5.128,0,0,0,.043-.821,15.829,15.829,0,0,0,2.189.164c.893.071,1.791.1,2.686.108a18,18,0,0,0,5.889-.621C-167.328,54.872-167.229,54.733-167.3,54.65Z" transform="translate(200.42 -4.787)" fill="#866c5d"/>
              <path id="Path_30043" data-name="Path 30043" d="M-180.974,48.024c-.967.7-2.013,1.285-2.962,2.013-.364.278-1.144,1.127-1.01,1.649h0a.873.873,0,0,0-.028.176c0,.185.244-.009.278-.067,1.022-1.624,4-.5,4-3.631C-180.693,48-180.829,47.916-180.974,48.024Z" transform="translate(195.172 -12.637)" fill="#866c5d"/>
              <path id="Path_30044" data-name="Path 30044" d="M-172.643,49.15l-.022-.025h0c-1.683-2.452-5.629-1.235-8.1-1.7a.438.438,0,0,0-.4.25c.056.2.117.4.188.586a1.715,1.715,0,0,0,1.627.781c1.22-.022,2.442-.028,3.662-.043.355-.006.825-.031,1.294-.006l.108.022a.185.185,0,0,0,.108-.006,2.12,2.12,0,0,1,1.257.436C-172.8,49.545-172.566,49.267-172.643,49.15Z" transform="translate(203.092 -13.809)" fill="#866c5d"/>
              <path id="Path_30045" data-name="Path 30045" d="M-178.319,55.086c-.471.346-.943.689-1.427,1.01a5.768,5.768,0,0,1-1.127.572c-.781.327-.889-1.288-.936-1.609a14.228,14.228,0,0,1,.182-4.632c.019-.108-.13-.031-.148.034a12.429,12.429,0,0,0-.17,6.321c.445,1.51,3.122-.849,3.73-1.346C-178.049,55.306-178.055,54.895-178.319,55.086Z" transform="translate(200.757 -7.62)" fill="#c39368"/>
              <path id="Path_30046" data-name="Path 30046" d="M-174.371,54.357a6.14,6.14,0,0,0-2.535-.519,6.321,6.321,0,0,0-1.633.139,7.077,7.077,0,0,0-1.158.386,5.5,5.5,0,0,1-.578.325.1.1,0,0,0-.071.074v.062c0,.049.031.09.086.067a7.17,7.17,0,0,1,2.8-.586,18.64,18.64,0,0,1,2.795.491C-174.511,54.82-174.174,54.465-174.371,54.357Z" transform="translate(204.795 -0.397)" fill="#c39368"/>
            </g>
          </g>
          <path id="Path_30047" data-name="Path 30047" d="M-191.834,108.313l4.128-2.263-.893-.654,11.171-10.535,4.873,4.749a.326.326,0,0,0,.448.006l9.248-8.293a.328.328,0,0,0,.11-.226.328.328,0,0,0-.082-.237.337.337,0,0,0-.259-.111.353.353,0,0,0-.207.086l-9.021,8.087-4.879-4.749a.327.327,0,0,0-.454,0L-189.137,105l-1.371-1.01Z" transform="translate(191.834 76.669)" fill="#e74b00"/>
          <path id="Path_30048" data-name="Path 30048" d="M-180.351,56.29a4.2,4.2,0,0,1,3.544.451S-178.6,56.438-180.351,56.29Z" transform="translate(215.807 4.33)" fill="#f4d9bf" style="mix-blend-mode: multiply;isolation: isolate"/>
          <path id="Path_30049" data-name="Path 30049" d="M-174.472,55.818a4.19,4.19,0,0,0-3.273,1.436S-176.112,56.457-174.472,55.818Z" transform="translate(221.248 3.74)" fill="#f4d9bf" style="mix-blend-mode: multiply;isolation: isolate"/>
        </g>
      </g>
    </g>
  </g>
</svg>
