<svg xmlns="http://www.w3.org/2000/svg" width="45" height="45" viewBox="0 0 45 45">
  <g id="Group_12642" data-name="Group 12642" transform="translate(-242 -1034)">
    <g id="Group_12641" data-name="Group 12641">
      <g id="Group_12632" data-name="Group 12632" transform="translate(90 -4976)">
        <g id="Group_10467" data-name="Group 10467" transform="translate(152 6010)">
          <g id="Group_9067" data-name="Group 9067" transform="translate(0 0)">
            <g id="Group_8666" data-name="Group 8666">
              <circle id="Ellipse_959" data-name="Ellipse 959" cx="22.5" cy="22.5" r="22.5" fill="#fff"/>
            </g>
          </g>
        </g>
      </g>
      <g id="_3" data-name="3" transform="translate(243.175 1031.434)">
        <path id="Path_29706" data-name="Path 29706" d="M37.073,31.653v2.433H35.852a6.155,6.155,0,0,1-.918,2.214l.864.863-1.72,1.72-.863-.863A6.154,6.154,0,0,1,31,38.938v1.221H28.567V38.938a6.153,6.153,0,0,1-2.214-.918l-.864.864-1.72-1.72.864-.864a6.172,6.172,0,0,1-.6-1.15h2.727A3.79,3.79,0,1,0,29.9,29.081l.389-3.5H31V26.8a6.154,6.154,0,0,1,2.214.918l.863-.863,1.72,1.72-.863.863a6.152,6.152,0,0,1,.918,2.214h1.221ZM19.812,18.331a1.7,1.7,0,0,1,.19.011l1.784-1.784a.455.455,0,0,1,.643.643L20.9,18.729a1.688,1.688,0,0,1,.537.835h3.374v-.927a3.182,3.182,0,0,0-3.172-3.172H17.984a3.182,3.182,0,0,0-3.172,3.172v.927h3.374A1.688,1.688,0,0,1,19.812,18.331Zm7.12,15.91H12.684a1.608,1.608,0,0,1-1.638-1.423L9,14.39a2.074,2.074,0,0,1,2.2-1.908H28.419c1.208,0,2.313.864,2.2,1.908L28.569,32.818A1.546,1.546,0,0,1,26.931,34.241ZM13.9,20.018a.455.455,0,0,0,.455.455H25.266a.455.455,0,0,0,.455-.455V18.637a4.092,4.092,0,0,0-4.081-4.081H17.984A4.092,4.092,0,0,0,13.9,18.637Zm4.448,4.123a2.891,2.891,0,0,0-5.586,1.5l1.319,4.924a2.053,2.053,0,0,0,2.507,1.447,1.733,1.733,0,0,0,1.277-2.33c-.343-1.33-1.4-1.154-1.615-2.169C16,26.272,19.035,26.766,18.351,24.141Zm8.507,1.5a2.891,2.891,0,0,0-5.586-1.5c-.684,2.625,2.355,2.131,2.1,3.369-.212,1.015-1.272.839-1.615,2.169a1.733,1.733,0,0,0,1.277,2.33,2.053,2.053,0,0,0,2.507-1.447l1.319-4.924Z" fill="#de6336"/>
      </g>
    </g>
  </g>
</svg>
